<?xml version="1.0" standalone="no"?>
<!DOCTYPE svg PUBLIC "-//W3C//DTD SVG 20010904//EN"
 "http://www.w3.org/TR/2001/REC-SVG-20010904/DTD/svg10.dtd">
<svg version="1.0" xmlns="http://www.w3.org/2000/svg"
 width="1080.000000pt" height="1080.000000pt" viewBox="0 0 1080.000000 1080.000000"
 preserveAspectRatio="xMidYMid meet">

<g transform="translate(0.000000,1080.000000) scale(0.100000,-0.100000)"
fill="#000000" stroke="none">
<path d="M5623 8907 c-145 -219 -211 -347 -268 -520 l-32 -98 -46 118 c-26 65
-73 171 -106 235 -63 126 -225 378 -242 378 -5 0 -55 -34 -109 -75 l-99 -75
70 -105 c180 -268 301 -565 354 -870 29 -164 15 -514 -23 -582 -5 -8 -18 23
-35 84 -79 280 -273 554 -536 755 -133 102 -316 283 -369 366 -23 35 -48 84
-56 110 l-16 47 -102 -6 c-57 -4 -116 -7 -132 -8 -27 -1 -28 -3 -23 -36 9 -56
56 -150 124 -248 l63 -92 -110 -12 c-121 -14 -231 -46 -330 -99 -73 -39 -185
-119 -185 -134 0 -5 38 -52 85 -103 l85 -94 38 33 c54 45 169 100 252 120 109
25 305 16 410 -20 155 -53 264 -127 368 -251 76 -91 124 -177 163 -295 116
-348 41 -728 -203 -1022 -40 -49 -139 -138 -152 -138 -12 0 -48 131 -66 234
-54 317 27 588 241 802 l82 82 -61 115 -61 115 -30 -21 c-65 -46 -195 -186
-249 -269 -71 -106 -122 -221 -152 -342 l-22 -91 -19 33 c-103 182 -316 482
-457 647 -107 124 -286 313 -325 343 l-35 26 -87 -94 -88 -95 141 -145 c77
-80 177 -190 222 -245 87 -106 258 -336 253 -341 -2 -1 -35 4 -73 11 -39 7
-133 25 -210 40 -77 15 -198 47 -270 71 -71 25 -138 46 -148 47 -15 2 -29 -22
-68 -108 -27 -60 -48 -114 -45 -120 9 -25 277 -101 561 -160 199 -41 303 -72
366 -111 108 -65 184 -170 259 -359 73 -182 229 -670 218 -681 -2 -2 -21 18
-40 44 -69 89 -261 266 -363 334 -111 74 -202 116 -321 149 -104 29 -272 31
-359 5 -89 -26 -205 -90 -266 -146 l-54 -49 92 -92 92 -92 53 41 c143 110 305
121 495 32 235 -109 495 -388 627 -672 53 -114 79 -193 110 -328 l23 -105 143
-3 143 -3 -6 148 c-13 303 -59 613 -133 903 l-45 175 23 18 c319 252 568 591
756 1027 8 18 11 -156 11 -641 l1 -666 -35 -37 c-99 -105 -29 -268 116 -268
120 0 194 119 143 228 -9 19 -27 43 -40 53 l-24 19 0 668 0 669 36 -80 c19
-44 38 -87 41 -95 23 -54 138 -254 204 -351 131 -194 312 -391 476 -519 l32
-25 -20 -70 c-83 -294 -144 -680 -156 -992 l-6 -163 141 0 c139 0 142 0 146
23 19 103 60 249 91 328 177 447 591 819 912 819 93 0 214 -49 267 -109 11
-11 24 -21 30 -21 6 0 52 41 101 91 l90 90 -55 50 c-72 65 -212 134 -315 155
-197 40 -448 -30 -666 -185 -82 -59 -274 -243 -338 -325 -17 -21 -31 -32 -31
-24 0 23 73 275 120 418 133 397 244 552 476 661 92 44 132 54 404 104 199 36
380 86 400 110 9 10 -1 42 -41 133 l-52 119 -73 -29 c-40 -15 -112 -39 -161
-53 -86 -25 -475 -106 -481 -100 -3 3 158 239 233 340 74 100 148 188 238 282
l78 81 -82 89 c-45 48 -85 92 -89 96 -19 21 -248 -241 -416 -474 -58 -82 -110
-149 -115 -149 -5 0 -9 13 -9 29 0 85 -57 276 -119 400 -39 77 -138 217 -180
255 -21 19 -22 19 -62 -20 -22 -21 -63 -64 -90 -96 l-49 -56 51 -69 c108 -142
158 -305 166 -538 6 -185 -9 -285 -73 -475 -42 -124 -162 -439 -171 -449 -14
-17 -191 196 -267 320 -319 527 -16 1269 677 1659 l57 32 -62 117 -62 118 -70
-40 c-111 -62 -224 -140 -303 -206 -39 -34 -74 -61 -76 -61 -2 0 -7 26 -10 58
-9 86 -53 226 -102 328 -45 93 -126 204 -149 204 -7 0 -45 -48 -83 -106 l-71
-106 31 -45 c71 -106 120 -281 119 -428 0 -137 -28 -237 -150 -541 -55 -137
-105 -267 -112 -289 -7 -22 -16 -44 -20 -48 -16 -18 -100 276 -131 460 -26
153 -31 364 -10 468 33 168 124 367 267 582 46 70 83 128 81 128 -1 1 -45 33
-97 70 -52 37 -100 71 -105 76 -7 5 -41 -38 -92 -114z"/>
<path d="M1930 3226 l0 -843 73 -22 c347 -102 711 -102 1035 1 l92 29 0 201
c0 186 -1 200 -17 195 -10 -2 -57 -16 -104 -30 -173 -51 -226 -59 -441 -64
l-208 -5 0 171 0 171 280 0 280 0 0 190 0 190 -280 0 -280 0 0 130 0 130 385
0 385 0 0 200 0 200 -600 0 -600 0 0 -844z"/>
<path d="M3380 3195 l0 -875 220 0 220 0 2 491 3 492 214 -321 c118 -177 217
-320 220 -317 4 2 104 149 222 326 l214 322 3 -497 2 -496 215 0 215 0 0 875
0 875 -219 0 -218 0 -214 -324 c-118 -179 -218 -325 -222 -325 -4 -1 -104 145
-222 324 l-214 325 -221 0 -220 0 0 -875z"/>
<path d="M5905 4058 c-2 -7 -122 -389 -265 -848 -143 -459 -265 -847 -270
-862 l-9 -28 217 0 218 0 43 165 c24 91 47 165 50 165 3 0 39 -7 80 -15 117
-25 290 -18 376 15 19 7 25 5 29 -8 3 -9 17 -62 31 -117 14 -55 33 -124 41
-152 l15 -53 215 0 c201 0 216 1 212 18 -3 9 -126 403 -273 875 l-269 857
-218 0 c-166 0 -220 -3 -223 -12z m303 -727 c39 -172 69 -317 67 -321 -9 -15
-134 -32 -187 -25 -93 11 -108 16 -108 33 0 33 145 641 151 634 3 -4 38 -148
77 -321z"/>
<path d="M7120 3195 l0 -875 220 0 220 0 0 497 0 497 216 -327 c119 -180 219
-327 223 -327 3 0 104 148 223 328 l218 327 0 -497 0 -498 215 0 215 0 0 875
0 875 -217 0 -218 -1 -215 -324 c-118 -178 -218 -325 -221 -325 -3 0 -103 146
-222 325 l-217 325 -220 0 -220 0 0 -875z"/>
</g>
</svg>
