<?xml version="1.0" encoding="UTF-8"?>
<svg version="1.1" xmlns="http://www.w3.org/2000/svg" width="1080" height="1080">
<path d="M0 0 C1.796875 0.078125 1.796875 0.078125 4 1 C6.078125 3.484375 6.078125 3.484375 8.25 6.75 C8.64276123 7.3392627 9.03552246 7.92852539 9.44018555 8.53564453 C10.64013632 10.34874235 11.8211382 12.17314125 13 14 C13.64066406 14.97195312 14.28132812 15.94390625 14.94140625 16.9453125 C25.60574233 33.64312473 34.09525325 51.45872418 41 70 C41.20044922 69.44763672 41.40089844 68.89527344 41.60742188 68.32617188 C49.98209977 45.40500132 60.54527513 24.33832459 75.06640625 4.66015625 C76.97399821 2.18878737 76.97399821 2.18878737 78 0 C83.47515379 0.35427466 86.97907809 3.68646287 91.125 6.9375 C92.54389663 8.03043389 93.96315344 9.12290038 95.3828125 10.21484375 C96.00559082 10.70073975 96.62836914 11.18663574 97.27001953 11.68725586 C98.8034193 12.85083059 100.3983905 13.93226033 102 15 C100.61837211 17.89251664 99.05514269 20.53717748 97.27734375 23.203125 C96.74318848 24.01031982 96.2090332 24.81751465 95.65869141 25.64916992 C95.09069824 26.50744385 94.52270508 27.36571777 93.9375 28.25 C70.45767691 64.16355983 60.98207711 97.58463568 69.28466797 140.62988281 C71.81624925 152.55682753 74.98805016 164.48054007 79 176 C81.95599549 173.04400451 82.89749129 169.29694442 84.3125 165.4375 C86.85654527 158.58360718 89.47810858 151.77166065 92.2421875 145.00390625 C104.16421612 115.72515737 112.91961303 90.1132122 100.41015625 59.01171875 C98.61467079 55.17703927 96.45392712 51.69234837 94.0390625 48.21875 C92.63437653 45.21927019 92.8775994 44.11828232 94 41 C95.48288105 38.37712189 97.15759718 35.91143579 98.875 33.4375 C99.32230469 32.77814453 99.76960938 32.11878906 100.23046875 31.43945312 C102.41373723 28.23539392 104.63690811 25.07514937 107 22 C111.78181919 22.75112646 113.82065402 25.46732276 116.8515625 29.0390625 C127.52767157 43.75268191 132.76383478 62.34302837 136 80 C136.48726562 79.53851563 136.97453125 79.07703125 137.4765625 78.6015625 C147.18427428 69.67046766 157.83003035 62.51688962 169.1875 55.875 C170.01362793 55.38926514 170.83975586 54.90353027 171.69091797 54.40307617 C172.46709473 53.95810791 173.24327148 53.51313965 174.04296875 53.0546875 C174.73414795 52.65749512 175.42532715 52.26030273 176.13745117 51.85107422 C178 51 178 51 181 51 C182.65577237 54.22416297 184.29782466 57.45512501 185.9375 60.6875 C186.40607422 61.59951172 186.87464844 62.51152344 187.35742188 63.45117188 C187.80537109 64.33740234 188.25332031 65.22363281 188.71484375 66.13671875 C189.12855225 66.94842529 189.54226074 67.76013184 189.96850586 68.59643555 C191.02742599 71.06390742 191.56999542 73.35619191 192 76 C191.18547363 76.47457642 191.18547363 76.47457642 190.35449219 76.95874023 C173.12503106 87.0372094 156.2253987 97.72938696 143.3125 113.25 C142.1678125 114.61125 142.1678125 114.61125 141 116 C140.34 116 139.68 116 139 116 C138.76667969 116.5259375 138.53335937 117.051875 138.29296875 117.59375 C136.58406161 120.77407265 134.44730335 123.59930517 132.3125 126.5 C113.20303209 153.0527533 103.79546823 183.14016917 108.625 215.9453125 C112.77395189 238.1825007 127.88500485 258.81770553 144 274 C147.22279661 269.16580509 149.01257326 263.70719197 151.125 258.3125 C151.36855225 257.69107117 151.61210449 257.06964233 151.86303711 256.42938232 C165.33392395 221.96463304 177.20266924 184.16932961 162.14697266 147.94775391 C158.71477356 140.22218577 154.92635175 133.13208901 149.25 126.796875 C148 125 148 125 148 121 C149.375 118.75 149.375 118.75 151 117 C151.66 117 152.32 117 153 117 C153.22429687 116.44828125 153.44859375 115.8965625 153.6796875 115.328125 C155.40385183 112.28788256 157.62515822 110.18574327 160.125 107.75 C161.03507812 106.85796875 161.94515625 105.9659375 162.8828125 105.046875 C163.58148437 104.37140625 164.28015625 103.6959375 165 103 C177.91039108 108.58595287 186.35754241 127.31254052 191.43359375 139.7734375 C195.43502165 150.19039818 197.90717475 161.06403165 200 172 C200.71542969 170.97003906 201.43085937 169.94007813 202.16796875 168.87890625 C212.76832657 153.69388017 223.82500313 138.96164543 236 125 C236.86238281 124.00226563 237.72476562 123.00453125 238.61328125 121.9765625 C243.20533895 116.74732933 243.20533895 116.74732933 245 115 C245.66 115 246.32 115 247 115 C247 114.34 247 113.68 247 113 C249.5 111.375 249.5 111.375 252 110 C253.5 111.375 253.5 111.375 255 113 C255 113.66 255 114.32 255 115 C255.66 115 256.32 115 257 115 C258.5859375 116.609375 258.5859375 116.609375 260.375 118.75 C262.33757727 121.06903702 264.2588295 123.25219284 266.4375 125.375 C268 127 268 127 268 129 C268.66 129 269.32 129 270 129 C268.40426092 133.04190198 265.51582842 135.62701745 262.4375 138.5625 C256.83167441 144.05141578 251.81671629 149.79808425 247 156 C246.29520508 156.8981543 246.29520508 156.8981543 245.57617188 157.81445312 C235.13900765 171.13083506 225.36478441 184.91057149 216 199 C249.61887076 194.42183697 249.61887076 194.42183697 281.04858398 182.83129883 C283 182 283 182 285.08886719 182.07470703 C287.84385249 183.40855914 288.34900841 185.03345256 289.578125 187.8046875 C290.23554687 189.26841797 290.23554687 189.26841797 290.90625 190.76171875 C291.3496875 191.78910156 291.793125 192.81648437 292.25 193.875 C292.70890625 194.89464844 293.1678125 195.91429687 293.640625 196.96484375 C297 204.55343192 297 204.55343192 297 208 C289.38748467 211.81660587 282.07581653 214.22503163 273.75 215.9375 C272.59975342 216.18564453 271.44950684 216.43378906 270.2644043 216.68945312 C263.83028533 218.05879989 257.3798416 219.31691189 250.91015625 220.50390625 C224.63358698 225.33502437 202.41241368 231.30773015 186.22412109 254.19970703 C170.56953956 277.22261972 163.45859892 307.21879399 157 334 C163.1379294 327.24910297 163.1379294 327.24910297 169.0625 320.3125 C172.35736037 316.45049153 176.11016646 313.24716539 180 310 C180.81339844 309.29875 181.62679688 308.5975 182.46484375 307.875 C204.48344083 289.25134079 228.06021618 280.5538716 257 282 C272.1846521 283.70422583 285.59094956 292.23810039 296 303 C294.5735422 306.2586636 292.83295838 308.4024854 290.3046875 310.890625 C289.58925781 311.59960938 288.87382813 312.30859375 288.13671875 313.0390625 C287.39035156 313.76867187 286.64398437 314.49828125 285.875 315.25 C285.12089844 315.99507813 284.36679687 316.74015625 283.58984375 317.5078125 C281.73099228 319.3431342 279.86762995 321.1736191 278 323 C274.62260179 321.70331724 272.08783698 320.44881795 269.3125 318.125 C261.24832921 311.93692148 252.25513954 309.44114468 242.16015625 310.21875 C215.27030912 313.89357799 194.36615407 333.04230741 178.03125 353.4609375 C161.34852936 375.50596121 152.93699683 399.28351428 147 426 C137.1 426 127.2 426 117 426 C115.95096014 387.53520497 122.62731492 348.87159867 132.33911133 311.77197266 C133.03279734 308.86243774 133.54061221 305.95480406 134 303 C133.0615625 302.30132812 132.123125 301.60265625 131.15625 300.8828125 C129.9372496 299.96387374 128.71851315 299.04458477 127.5 298.125 C126.87996094 297.66480469 126.25992187 297.20460938 125.62109375 296.73046875 C124.04364108 295.53437826 122.51738202 294.27143274 121 293 C121 292.34 121 291.68 121 291 C120.45730469 290.78214844 119.91460938 290.56429688 119.35546875 290.33984375 C116.20290438 288.54659403 113.83282986 286.12917427 111.3125 283.5625 C110.78285645 283.02681396 110.25321289 282.49112793 109.70751953 281.93920898 C104.78730259 276.89646928 100.33545366 271.55215292 96 266 C95.22269531 265.03964844 94.44539063 264.07929688 93.64453125 263.08984375 C78.99753178 244.67048511 68.48430127 223.96860254 58 203 C58 245.24 58 287.48 58 331 C59.32 331.66 60.64 332.32 62 333 C65.4284833 337.60305628 66.72643718 342.29227929 66 348 C64.10495003 353.5903974 61.99665021 357.23726458 56.875 360.25 C51.36974724 361.6861529 46.08272018 361.70733893 40.6875 359.875 C36.93654368 357.25805373 33.99503493 354.3727756 32.1875 350.0625 C31.55822965 343.1405262 32.03761299 337.67335989 36.5625 332.0625 C38 331 38 331 40 331 C39.67 289.09 39.34 247.18 39 204 C35.7 210.93 32.4 217.86 29 225 C25.75200395 230.74340766 22.49877631 236.41561456 19 242 C18.33355469 243.06476563 17.66710937 244.12953125 16.98046875 245.2265625 C12.20757892 252.59489344 6.87183543 259.46999704 1.36816406 266.29833984 C0.02499786 267.9689088 -1.30487581 269.64934433 -2.6328125 271.33203125 C-3.43460938 272.33621094 -4.23640625 273.34039062 -5.0625 274.375 C-5.77535156 275.26960938 -6.48820313 276.16421875 -7.22265625 277.0859375 C-8.10244141 278.03339844 -8.10244141 278.03339844 -9 279 C-9.66 279 -10.32 279 -11 279 C-11.25885986 279.58789307 -11.51771973 280.17578613 -11.78442383 280.78149414 C-13.09223554 283.16833588 -14.46671322 284.64130758 -16.44921875 286.49609375 C-17.47499023 287.45805664 -17.47499023 287.45805664 -18.52148438 288.43945312 C-19.59366211 289.42848633 -19.59366211 289.42848633 -20.6875 290.4375 C-21.38294922 291.09298828 -22.07839844 291.74847656 -22.79492188 292.42382812 C-26.98903542 296.32815232 -31.26190835 299.77710411 -36 303 C-35.35788917 309.49755002 -33.91616083 315.57062171 -32.25 321.875 C-25.78304926 347.12327339 -21.73880438 372.58244144 -19.8125 398.5625 C-19.72846924 399.69155762 -19.64443848 400.82061523 -19.55786133 401.98388672 C-19.01174945 410.0427269 -19 417.88086257 -19 426 C-28.9 426 -38.8 426 -49 426 C-49.556875 423.69 -50.11375 421.38 -50.6875 419 C-57.49357896 391.5143489 -67.98031844 366.58819909 -87.56640625 345.7421875 C-89 344 -89 344 -89 342 C-89.66 342 -90.32 342 -91 342 C-91.639375 341.195625 -92.27875 340.39125 -92.9375 339.5625 C-104.81742934 324.7475293 -125.14004839 312.79250117 -143.9375 310.1875 C-155.63264234 309.34822301 -166.72756714 313.42353192 -175.75 320.875 C-176.4925 321.57625 -177.235 322.2775 -178 323 C-181.2586636 321.5735422 -183.4024854 319.83295838 -185.890625 317.3046875 C-186.59960938 316.58925781 -187.30859375 315.87382812 -188.0390625 315.13671875 C-188.76867187 314.39035156 -189.49828125 313.64398438 -190.25 312.875 C-190.99507813 312.12089844 -191.74015625 311.36679687 -192.5078125 310.58984375 C-194.3431342 308.73099228 -196.1736191 306.86762995 -198 305 C-192.90579278 294.33616308 -181.32194727 289.45522275 -171 285 C-169.66195313 284.42185547 -169.66195313 284.42185547 -168.296875 283.83203125 C-149.58443528 277.40340277 -127.2509719 282.42866685 -110.03759766 290.79492188 C-95.58573139 298.14732992 -83.38966058 308.25135252 -72.0625 319.75 C-71.22654297 320.58660156 -70.39058594 321.42320312 -69.52929688 322.28515625 C-66.11330801 325.72583901 -62.83203144 329.05349887 -60 333 C-61.64639747 322.89236993 -64.93941027 313.32942198 -68.125 303.625 C-68.56285324 302.28423401 -68.56285324 302.28423401 -69.009552 300.91638184 C-73.20630417 288.08657843 -77.48039978 275.33331629 -83 263 C-83.50660156 261.84757812 -84.01320313 260.69515625 -84.53515625 259.5078125 C-90.96447031 245.75765282 -100.17052111 235.99706981 -114.27539062 230.27368164 C-121.01973021 227.96736153 -127.97091438 226.60711318 -134.94442749 225.1763916 C-139.50943669 224.23737289 -144.06518386 223.25551032 -148.62109375 222.2734375 C-149.51876968 222.08040039 -150.41644562 221.88736328 -151.34132385 221.68847656 C-167.50052629 218.18591074 -183.59822697 214.07669954 -199 208 C-198.3291348 202.90142445 -196.16489311 198.511428 -194.0625 193.875 C-193.70220703 193.06417969 -193.34191406 192.25335938 -192.97070312 191.41796875 C-191.47127536 188.07670247 -190.03879186 185.05818778 -188 182 C-187.47140381 182.17740723 -186.94280762 182.35481445 -186.39819336 182.53759766 C-183.9334161 183.36231604 -181.46703282 184.18205329 -179 185 C-177.77240967 185.40750488 -177.77240967 185.40750488 -176.52001953 185.82324219 C-157.32403062 192.11884111 -137.89864329 195.72677401 -118 199 C-121.99015365 193.65922734 -125.99154986 188.32705148 -130 183 C-130.44762695 182.4033252 -130.89525391 181.80665039 -131.35644531 181.19189453 C-145.71449512 162.08724238 -161.99095895 144.75475306 -179 128 C-177.02087975 125.64645159 -175.01914558 123.31913293 -173 121 C-172.57122559 120.50193848 -172.14245117 120.00387695 -171.70068359 119.49072266 C-170.27051303 117.83732048 -168.82432451 116.19912258 -167.375 114.5625 C-166.90795654 114.01819336 -166.44091309 113.47388672 -165.9597168 112.91308594 C-164.5859375 111.37890625 -164.5859375 111.37890625 -162 109 C-157.06940758 109 -155.53108388 110.77392899 -152.1875 114 C-151.65632568 114.49967285 -151.12515137 114.9993457 -150.57788086 115.51416016 C-147.03975153 118.88344752 -143.71119773 122.37897661 -140.59765625 126.1484375 C-138.5183674 128.55817568 -136.25706604 130.75634891 -134 133 C-126.65969949 140.67187171 -119.9236172 148.65315269 -113.47412109 157.08007812 C-111.91654321 159.10869562 -110.34392043 161.12503255 -108.76953125 163.140625 C-99.35587027 175.2439034 -90.9290443 187.77169235 -82.875 200.8125 C-82.3888623 201.59616943 -81.90272461 202.37983887 -81.40185547 203.18725586 C-80.73500732 204.27985718 -80.73500732 204.27985718 -80.0546875 205.39453125 C-79.65749512 206.04268799 -79.26030273 206.69084473 -78.85107422 207.35864258 C-78 209 -78 209 -78 211 C-77.34 211 -76.68 211 -76 211 C-75.99742187 210.46375 -75.99484375 209.9275 -75.9921875 209.375 C-74.85229109 186.27309947 -58.75866428 164.73683787 -43 149 C-34.10015408 141 -34.10015408 141 -30 141 C-28.72817607 143.37447413 -27.45751576 145.74955897 -26.1875 148.125 C-25.83107422 148.79015625 -25.47464844 149.4553125 -25.10742188 150.140625 C-24.40042743 151.46380726 -23.69839411 152.78965285 -23.00146484 154.11816406 C-22.09369405 155.82394107 -21.137344 157.50364451 -20.17578125 159.1796875 C-18.8107206 162.45401903 -18.66795491 163.72896992 -20 167 C-21.96875 169.03515625 -21.96875 169.03515625 -24.5 171.0625 C-41.0818769 185.42401161 -49.80336083 205.71891878 -51.875 227.25 C-52.55308684 243.38846669 -49.56586924 258.59454805 -45 274 C-28.48832998 266.32607406 -17.83831427 245.83317964 -11.61328125 229.58984375 C-2.41047762 204.18104849 -2.98737209 175.18324204 -14.22973633 150.55297852 C-24.72472284 128.67350651 -40.76778659 114.53523941 -63.5625 106.25 C-83.46475448 100.13457999 -103.21095929 102.24699802 -121.44140625 111.8671875 C-123.98738653 113.28594508 -126.05747477 114.86496461 -128.21484375 116.8203125 C-131 119 -131 119 -133.17578125 119.02734375 C-135.36439433 117.79478435 -136.59894122 116.51191657 -138.1875 114.5625 C-141.04063065 111.14494568 -143.95036157 107.80182126 -146.9375 104.5 C-147.70964844 103.6440625 -148.48179687 102.788125 -149.27734375 101.90625 C-149.84582031 101.2771875 -150.41429687 100.648125 -151 100 C-147.82669285 91.4282008 -133.62559111 85.29218344 -125.87890625 81.5703125 C-115.95416053 77.32985758 -104.80921506 74.61812978 -94.03125 74.140625 C-91.79614981 74.07091183 -91.79614981 74.07091183 -89 73 C-89.65226562 72.12859375 -90.30453125 71.2571875 -90.9765625 70.359375 C-107.68879774 47.70956155 -107.68879774 47.70956155 -107 36 C-97.62087413 35.20177652 -88.41213252 34.87126263 -79 35 C-78.74347656 35.71542969 -78.48695313 36.43085938 -78.22265625 37.16796875 C-69.95387209 58.68908039 -52.96093477 73.73601112 -34.8046875 87.15234375 C-29.89549019 90.78543896 -25.40588233 94.77468662 -21 99 C-20.04867187 99.88816406 -19.09734375 100.77632813 -18.1171875 101.69140625 C-0.58760439 118.35494783 10.13968541 138.30734725 18.22998047 160.87646484 C19.09926308 163.27374453 20.02860681 165.64229694 21 168 C30.5148437 118.44352239 15.07193649 69.59582908 -12 28 C-14.13406945 24.89604318 -16.3622573 21.87465218 -18.671875 18.8984375 C-20 17 -20 17 -20 15 C-18.27172852 13.50366211 -18.27172852 13.50366211 -15.87890625 11.77734375 C-15.02619141 11.15666016 -14.17347656 10.53597656 -13.29492188 9.89648438 C-12.39322266 9.25001953 -11.49152344 8.60355469 -10.5625 7.9375 C-8.79258055 6.65548369 -7.02302939 5.37295872 -5.25390625 4.08984375 C-4.46314697 3.52128662 -3.6723877 2.95272949 -2.85766602 2.36694336 C-1.08196687 1.13211632 -1.08196687 1.13211632 0 0 Z M-59 334 C-58 336 -58 336 -58 336 Z " fill="#116031" transform="translate(491,177)"/>
<path d="M0 0 C14.85 0 29.7 0 45 0 C49.22739605 5.4352235 53.08839647 10.46186862 56.5859375 16.28125 C62.66897278 26.19623913 69.15154941 35.83735707 75.625 45.5 C76.83224996 47.30584339 78.03928245 49.11183218 79.24609375 50.91796875 C82.16156687 55.28031906 85.07968357 59.64089069 88 64 C90.92254938 61.23875241 93.16529047 58.46173058 95.3359375 55.08203125 C95.97789062 54.09001709 96.61984375 53.09800293 97.28125 52.07592773 C97.9721875 50.99899658 98.663125 49.92206543 99.375 48.8125 C100.87984597 46.48505183 102.38899349 44.16040558 103.8984375 41.8359375 C104.2978656 41.22006271 104.6972937 40.60418793 105.10882568 39.96965027 C109.85212009 32.66721728 114.67681751 25.41904974 119.50811768 18.1746521 C120.50314421 16.68256009 121.4975693 15.19006682 122.49139404 13.69717407 C123.88882509 11.59804666 125.28786003 9.49999877 126.6875 7.40234375 C127.10963776 6.76813507 127.53177551 6.13392639 127.96670532 5.48049927 C130.88478551 1.11521449 130.88478551 1.11521449 132 0 C146.85 0 161.7 0 177 0 C177 58.08 177 116.16 177 176 C162.15 176 147.3 176 132 176 C131.67 144.65 131.34 113.3 131 81 C121.99603004 94.66931419 121.99603004 94.66931419 112.99316406 108.33935547 C105.36575117 119.91774664 97.7058455 131.47365466 90 143 C86.57636635 141.58760694 85.06277568 140.07608407 83.05834961 136.98779297 C82.241157 135.74411453 82.241157 135.74411453 81.40745544 134.47531128 C80.82826859 133.57338043 80.24908173 132.67144958 79.65234375 131.7421875 C78.7344381 130.33841354 78.7344381 130.33841354 77.79798889 128.90628052 C75.83560697 125.90153567 73.88614551 122.88866736 71.9375 119.875 C70.01132536 116.91303618 68.08245118 113.95285637 66.1519928 110.99368286 C64.95332535 109.15442588 63.7574416 107.3133498 62.56517029 105.46994019 C57.194734 97.19677295 51.59583568 89.13939736 46 81 C45.67 112.35 45.34 143.7 45 176 C30.15 176 15.3 176 0 176 C0 117.92 0 59.84 0 0 Z " fill="#116031" transform="translate(337,672)"/>
<path d="M0 0 C45 0 45 0 55.28125 8.95703125 C57.58892946 12.92478585 59.57131249 16.68661109 61.5 20.8125 C62.56603832 22.78023314 63.64810231 24.73936948 64.74609375 26.68945312 C66.88611539 30.52765574 68.9399939 34.39504802 70.94140625 38.30712891 C73.97706443 44.11606913 77.45178295 49.54702071 81.15625 54.94921875 C81.71147339 55.7659053 82.26669678 56.58259186 82.83874512 57.42402649 C84.81253851 60.29621258 84.81253851 60.29621258 87 63 C87.66 63 88.32 63 89 63 C90.34857519 61.39640117 90.34857519 61.39640117 91.68286133 59.26245117 C92.22135208 58.44286423 92.75984283 57.62327728 93.31465149 56.77885437 C94.18950447 55.42459099 94.18950447 55.42459099 95.08203125 54.04296875 C95.6920549 53.11140457 96.30207855 52.17984039 96.93058777 51.220047 C98.89781093 48.2134405 100.85553354 45.20079042 102.8125 42.1875 C104.08981186 40.22807026 105.36779925 38.26908072 106.64648438 36.31054688 C107.27263641 35.34674103 107.89878845 34.38293518 108.54391479 33.3899231 C109.82644016 31.43946735 111.12914186 29.50213979 112.45095825 27.57809448 C115.62031917 22.92579132 118.28447212 18.59233336 120.26708984 13.31103516 C122.63671875 8.05078125 122.63671875 8.05078125 131 0 C145.85 0 160.7 0 176 0 C176 58.08 176 116.16 176 176 C161.15 176 146.3 176 131 176 C130.67 144.65 130.34 113.3 130 81 C121.70944837 93.81221462 121.70944837 93.81221462 113.43482971 106.63453674 C110.96609122 110.45639623 108.48385 114.26940662 105.99975586 118.08129883 C104.69062082 120.09589845 103.38671189 122.11390232 102.08764648 124.13500977 C100.18729894 127.08955782 98.26951732 130.03207139 96.34765625 132.97265625 C95.47887596 134.3363308 95.47887596 134.3363308 94.59254456 135.72755432 C94.04774948 136.55359665 93.50295441 137.37963898 92.94165039 138.23071289 C92.46852921 138.96109268 91.99540802 139.69147247 91.50794983 140.44398499 C91.01032639 140.95746994 90.51270294 141.4709549 90 142 C88.68 142 87.36 142 86 142 C84.25854492 140.0769043 84.25854492 140.0769043 82.48046875 137.32421875 C70.07947328 118.15288908 57.54017009 99.08286753 45 80 C44.67 111.68 44.34 143.36 44 176 C29.48 176 14.96 176 0 176 C0 117.92 0 59.84 0 0 Z " fill="#116031" transform="translate(712,672)"/>
<path d="M0 0 C40.26 0 80.52 0 122 0 C122 13.53 122 27.06 122 41 C120.32664004 42.67335996 118.28612091 42.11962895 116.05252075 42.12442017 C115.3454599 42.12082489 114.63839905 42.11722961 113.90991211 42.11352539 C113.16849472 42.11367142 112.42707733 42.11381744 111.66319275 42.1139679 C109.20121379 42.11326865 106.73930957 42.10547574 104.27734375 42.09765625 C102.57483461 42.09579211 100.87232493 42.09436819 99.16981506 42.09336853 C94.68006927 42.08954302 90.19035562 42.07971247 85.70062256 42.06866455 C81.12268509 42.05845113 76.54474244 42.05387106 71.96679688 42.04882812 C62.97784816 42.03809022 53.98893178 42.02049316 45 42 C45 49.92 45 57.84 45 66 C63.15 66 81.3 66 100 66 C100 79.2 100 92.4 100 106 C81.85 106 63.7 106 45 106 C45 116.56 45 127.12 45 138 C69.36404965 138.36005985 90.32030368 136.61211631 113.63256836 129.61669922 C116.38155871 128.90060665 119.197923 128.46701283 122 128 C122 141.53 122 155.06 122 169 C111.86288922 173.50538257 111.86288922 173.50538257 108.01953125 174.4140625 C107.16423828 174.61773438 106.30894531 174.82140625 105.42773438 175.03125 C104.56470703 175.2271875 103.70167969 175.423125 102.8125 175.625 C101.54696289 175.93050781 101.54696289 175.93050781 100.25585938 176.2421875 C87.13059149 179.30507724 74.29793297 180.37724668 60.875 180.3125 C60.10853149 180.31100952 59.34206299 180.30951904 58.55236816 180.3079834 C38.03596212 180.23640833 19.26651086 177.22494157 0 170 C0 113.9 0 57.8 0 0 Z " fill="#116031" transform="translate(192,672)"/>
<path d="M0 0 C14.85 0 29.7 0 45 0 C46.86377992 4.9700798 48.63527408 9.8249892 50.22631836 14.86914062 C50.42912415 15.51008604 50.63192993 16.15103146 50.84088135 16.81139946 C51.50928157 18.9256994 52.17459331 21.0409571 52.83984375 23.15625 C53.3189695 24.67433894 53.79826765 26.19237349 54.27772522 27.71035767 C55.56612363 31.79162732 56.85169548 35.87378204 58.13659668 39.95615387 C59.20957797 43.36417981 60.28409325 46.77172136 61.35854149 50.17928505 C68.60156067 73.15203158 75.8142387 96.1342817 83 119.125 C83.30380648 120.09682724 83.30380648 120.09682724 83.61375046 121.08828735 C86.05362 128.89342998 88.4884439 136.70011926 90.91503906 144.50939941 C91.66352255 146.91746482 92.41292792 149.3252438 93.16308594 151.73278809 C94.29913894 155.3808567 95.43133505 159.03010069 96.5625 162.6796875 C96.90949951 163.79207794 97.25649902 164.90446838 97.61401367 166.05056763 C97.92830322 167.0675473 98.24259277 168.08452698 98.56640625 169.13232422 C98.84427979 170.02732635 99.12215332 170.92232849 99.40844727 171.8444519 C100 174 100 174 100 176 C85.15 176 70.3 176 55 176 C53.35 170.06 51.7 164.12 50 158 C48.67137201 153.33184759 47.34226735 148.66419158 46 144 C45.1028125 144.2165625 44.205625 144.433125 43.28125 144.65625 C28.20694814 148.01993719 14.19044309 147.19669388 -1 145 C-1.23710693 145.90355225 -1.47421387 146.80710449 -1.71850586 147.73803711 C-2.59728495 151.08024005 -3.4791096 154.42160783 -4.36303711 157.76245117 C-4.74545373 159.2103686 -5.12664251 160.65861089 -5.5065918 162.10717773 C-6.05197162 164.18559395 -6.6017125 166.26281351 -7.15234375 168.33984375 C-7.48226318 169.59144287 -7.81218262 170.84304199 -8.15209961 172.13256836 C-9 175 -9 175 -10 176 C-11.41225046 176.0928726 -12.82908934 176.11746772 -14.24438477 176.11352539 C-15.14524307 176.11344986 -16.04610138 176.11337433 -16.97425842 176.11329651 C-17.95341721 176.10813522 -18.93257599 176.10297394 -19.94140625 176.09765625 C-20.93881332 176.0962413 -21.9362204 176.09482635 -22.96385193 176.09336853 C-26.16343124 176.08775114 -29.36294169 176.07519571 -32.5625 176.0625 C-34.72591045 176.05748724 -36.88932199 176.05292395 -39.05273438 176.04882812 C-44.36851325 176.03777607 -49.68425171 176.02102104 -55 176 C-46.77841189 149.27151719 -38.42589417 122.58496272 -30.03259277 95.91003418 C-28.61137812 91.39320885 -27.19033665 86.87632908 -25.76953125 82.359375 C-25.53323879 81.60817131 -25.29694633 80.85696762 -25.0534935 80.08300018 C-19.5560401 62.60365521 -14.08760204 45.11526301 -8.625 27.625 C-8.40380871 26.91681877 -8.18261742 26.20863754 -7.95472336 25.47899628 C-5.30217735 16.98630056 -2.65089408 8.49321163 0 0 Z M22 45 C20.12638996 52.91570602 18.26529465 60.83420371 16.42025566 68.75661278 C15.56319996 72.43493147 14.70181296 76.11212377 13.83056641 79.78710938 C12.99045651 83.33146289 12.16167442 86.87828868 11.34079361 90.4271431 C11.02507531 91.78292396 10.70523589 93.13775175 10.38128281 94.49158859 C9.92943669 96.38296115 9.49337076 98.27808282 9.05810547 100.17333984 C8.80495575 101.25255707 8.55180603 102.33177429 8.29098511 103.44369507 C8.14694748 104.70906601 8.14694748 104.70906601 8 106 C11.95271684 109.95271684 17.63468422 109.18257631 22.9375 109.1875 C23.62779297 109.19974609 24.31808594 109.21199219 25.02929688 109.22460938 C29.40816814 109.23706114 32.93293116 108.61027921 37 107 C36.28513334 100.09414791 34.87186688 93.42899416 33.34765625 86.66015625 C33.08746201 85.49745712 32.82726776 84.334758 32.55918884 83.13682556 C32.01066767 80.69321331 31.46005638 78.25006939 30.9074707 75.80737305 C30.06025634 72.05255622 29.22621287 68.29496128 28.39257812 64.53710938 C27.857574 62.16127733 27.32179423 59.78561978 26.78515625 57.41015625 C26.53613052 56.28110367 26.2871048 55.15205109 26.03053284 53.98878479 C25.79366257 52.953582 25.5567923 51.91837921 25.31274414 50.85180664 C25.10702286 49.93661758 24.90130157 49.02142853 24.68934631 48.07850647 C24.46186203 47.39259933 24.23437775 46.7066922 24 46 C23.34 45.67 22.68 45.34 22 45 Z " fill="#116031" transform="translate(590,672)"/>
<path d="M0 0 C9.80044404 5.17245658 15.22250226 16.66750679 18.61328125 26.83984375 C21.29071536 41.79561204 17.51471323 54.63545716 9 67 C6.81086718 69.5206908 4.52639206 71.81916308 2 74 C-7.6227513 69.72322164 -12.0218354 59.12505552 -16 50 C-19.54778062 39.910358 -17.47875565 26.35153672 -13 17 C-9.45539969 10.47724883 -5.51159966 4.97388262 0 0 Z " fill="#81C137" transform="translate(629,336)"/>
<path d="M0 0 C5.53477624 1.90815874 7.55537621 7.03885171 10 12 C14.40102224 22.57055342 16.07255755 33.62496556 12.4375 44.6875 C10.02675526 50.48189718 6.91071707 56.0821145 3 61 C1.515 61.495 1.515 61.495 0 62 C-0.33 62.99 -0.66 63.98 -1 65 C-2.95597184 66.39712274 -4.95436401 67.73779907 -7 69 C-12.52570757 66.77304458 -14.46875873 62.13693081 -17 57 C-21.67806893 45.76402463 -23.0155908 34.72937423 -18.875 23.125 C-15.20080226 14.63420691 -8.54920762 4.27460381 0 0 Z " fill="#81C137" transform="translate(701,253)"/>
<path d="M0 0 C7.60178431 0.8919061 13.30815687 6.8784498 18.12890625 12.46875 C19.91880092 14.91197555 21.4959365 17.371976 23 20 C23.433125 20.75667969 23.86625 21.51335937 24.3125 22.29296875 C29.44345263 32.92900597 27.91929095 45.3978217 24.15625 56.203125 C22.70694938 59.70886569 21.06897407 62.82264696 19 66 C8.28339154 63.52693651 1.5764541 54.89608442 -4 46 C-9.05528934 36.65908474 -9.3747874 25.48926861 -6.8125 15.3125 C-5.15695564 9.90014342 -2.71744347 4.95154719 0 0 Z " fill="#81C137" transform="translate(396,292)"/>
<path d="M0 0 C11.97650873 -0.9732603 23.44786063 2.73902634 33 10 C40.95746763 17.08541638 45.85129969 27.42862763 47 38 C47.14252334 42.33959003 47.12073571 46.66022183 47 51 C34.46247737 51.72331861 24.54704592 47.209148 14 41 C14 40.34 14 39.68 14 39 C13.01 38.67 12.02 38.34 11 38 C3.53126037 28.49433138 -0.18402919 18.21889013 -0.0625 6.1875 C-0.05347656 5.02605469 -0.04445313 3.86460937 -0.03515625 2.66796875 C-0.02355469 1.78753906 -0.01195312 0.90710938 0 0 Z " fill="#81C137" transform="translate(432,203)"/>
<path d="M0 0 C-2.69361382 10.62053448 -8.85751727 19.82841381 -18 26 C-29.40595155 31.80023583 -40.73638573 32.08494645 -53 29 C-55.328125 27.9296875 -55.328125 27.9296875 -57 27 C-55.75334543 17.33842708 -50.89723141 9.8592934 -43.4375 3.72265625 C-29.5602211 -6.08484374 -15.61840781 -5.72589746 0 0 Z " fill="#81C137" transform="translate(383,505)"/>
<path d="M0 0 C8.67148283 5.85591269 14.67912591 13.47264599 18.11328125 23.37109375 C18.11328125 24.36109375 18.11328125 25.35109375 18.11328125 26.37109375 C6.40777413 30.57239315 -5.07267107 31.90091821 -16.88671875 27.37109375 C-27.79987227 21.96631994 -34.85854396 12.70033536 -38.88671875 1.37109375 C-38.88671875 0.71109375 -38.88671875 0.05109375 -38.88671875 -0.62890625 C-25.67816941 -5.4010273 -12.71815346 -7.17654938 0 0 Z " fill="#81C137" transform="translate(735.88671875,505.62890625)"/>
<path d="M0 0 C3.1325336 3.01651383 5.61024626 6.31243136 8.00390625 9.9296875 C8.64328125 10.8165625 9.28265625 11.7034375 9.94140625 12.6171875 C11.00390625 14.9296875 11.00390625 14.9296875 11.19140625 17.5546875 C9.56039672 20.81670655 7.66093423 21.23064126 4.3046875 22.3515625 C-8.60698316 25.59592117 -19.67385243 24.66194237 -31.18359375 18.1171875 C-38.479184 12.44283953 -43.15646593 6.41062367 -46.99609375 -2.0703125 C-46.99609375 -2.7303125 -46.99609375 -3.3903125 -46.99609375 -4.0703125 C-30.27086263 -10.46875501 -14.58803271 -12.16104337 0 0 Z " fill="#81C137" transform="translate(781.99609375,422.0703125)"/>
<path d="M0 0 C-0.41539871 8.1002749 -5.66777054 14.01010861 -11.375 19.3125 C-20.52723445 27.06026002 -29.15655945 28.7575062 -40.9765625 28.20556641 C-46.19130824 27.67578649 -51.12462637 25.84162511 -56 24 C-56.87499788 21.07133062 -57.26788172 19.57906762 -55.9609375 16.75390625 C-55.43757813 16.03074219 -54.91421875 15.30757813 -54.375 14.5625 C-53.81167969 13.78390625 -53.24835938 13.0053125 -52.66796875 12.203125 C-52.11753906 11.47609375 -51.56710937 10.7490625 -51 10 C-50.236875 8.948125 -49.47375 7.89625 -48.6875 6.8125 C-35.76894576 -6.70691723 -16.4338648 -8.91459647 0 0 Z " fill="#81C137" transform="translate(344,418)"/>
<path d="M0 0 C3.2814559 1.05759947 4.06145229 2.10152987 5.88671875 5.1171875 C6.49941616 6.36375545 7.09933922 7.6166691 7.6875 8.875 C7.99494141 9.50019531 8.30238281 10.12539063 8.61914062 10.76953125 C12.73269908 19.28468726 13.37752424 28.58617694 11.38671875 37.85546875 C8.27249793 46.48474141 2.22356379 53.4975288 -5 59 C-10.8749058 56.53029438 -13.29958167 50.94248553 -15.75 45.3125 C-18.83759313 36.28040284 -18.99902274 26.69890513 -15 18 C-11.12815488 10.63429992 -6.62160079 5.03929619 0 0 Z " fill="#81C137" transform="translate(580,246)"/>
<path d="M0 0 C5.40616333 0.84174911 7.87752392 4.82214157 11 9 C16.05249244 16.9285266 18.17367673 26.19267497 16.5703125 35.4921875 C14.45313575 44.71889605 9.8713482 52.49109654 3 59 C-5.34789331 55.24793613 -8.8602435 47.1683705 -12 39 C-14.80788967 29.81215848 -12.90211992 20.5560244 -9 12 C-7.20494757 9.12697875 -5.19377273 6.57402666 -3 4 C-1.99253572 2.67229766 -0.99056912 1.34035465 0 0 Z " fill="#81C137" transform="translate(531,160)"/>
<path d="M0 0 C5.48183148 4.53668812 7.30998678 11.09986784 8 18 C8.69972016 27.79608221 7.12479753 36.31445365 0.80078125 44.05078125 C-4.48403413 49.77122133 -9.55723345 54.46629224 -17 57 C-22.56898248 46.60456604 -25.16229274 35.94402907 -22.3125 24.15625 C-18.63191306 14.21866526 -11.85876278 6.19568879 -2.5625 1.125 C-1.716875 0.75375 -0.87125 0.3825 0 0 Z " fill="#81C137" transform="translate(469,367)"/>
<path d="M0 0 C0.29584554 10.66181821 -3.06103451 19.77900856 -10 28 C-18.45225009 36.16633888 -28.53333213 37.93859883 -40 38 C-42.38671875 37.515625 -42.38671875 37.515625 -44 37 C-44.80675792 27.31890502 -41.49446098 18.20384063 -35.5 10.5234375 C-25.25509841 0.11845933 -13.68686379 -0.45342984 0 0 Z " fill="#81C137" transform="translate(722,424)"/>
<path d="M0 0 C11.64747277 -0.52610918 21.78786264 -0.52548317 31.3125 7.1875 C38.3803026 13.99460496 43.37675277 22.24403448 44.17578125 32.1875 C44.18549016 33.79270705 44.1044674 35.39816652 44 37 C37.20440287 40.39779856 27.77008843 37.13646233 21 35 C13.27845193 32.28169992 8.3028787 27.35583257 4.48828125 20.140625 C-0.14639198 10.10104632 -0.14639198 10.10104632 -0.0625 4.3125 C-0.05347656 3.50425781 -0.04445313 2.69601562 -0.03515625 1.86328125 C-0.02355469 1.24839844 -0.01195312 0.63351562 0 0 Z " fill="#81C137" transform="translate(358,424)"/>
<path d="M0 0 C7.69451571 5.29641617 12.00838992 13.0101071 14.73046875 21.78125 C14.73046875 22.77125 14.73046875 23.76125 14.73046875 24.78125 C6.31033725 27.5879605 -4.93092114 27.03087165 -12.95703125 23.34375 C-22.18352035 17.88187263 -26.47945003 9.91912277 -29.26953125 -0.21875 C-29.26953125 -0.87875 -29.26953125 -1.53875 -29.26953125 -2.21875 C-19.06679689 -5.13381696 -9.57970103 -5.14434892 0 0 Z " fill="#81C137" transform="translate(321.26953125,330.21875)"/>
<path d="M0 0 C0.7115625 -0.00386719 1.423125 -0.00773437 2.15625 -0.01171875 C5.57538017 -0.00533978 8.73293006 0.05299268 12 1.125 C11.218176 10.50688798 6.94454089 17.78494344 0 24.125 C-6.37503927 28.33058674 -12.42715954 29.27169806 -20 29.3125 C-21.19625 29.32667969 -22.3925 29.34085937 -23.625 29.35546875 C-26.87695208 29.13340258 -29.08270531 28.52287037 -32 27.125 C-30.43039144 21.1081672 -28.84083808 16.12972841 -25 11.125 C-24.443125 10.279375 -23.88625 9.43375 -23.3125 8.5625 C-16.73750955 1.63210466 -9.19991078 -0.04999952 0 0 Z " fill="#81C137" transform="translate(769,323.875)"/>
<path d="M0 0 C3.1713985 8.52313348 3.39198019 18.50098072 0.03125 27.01171875 C-3.48804431 33.79702483 -9.2522866 38.54442359 -16 42 C-18.44270006 42.68001906 -20.44856309 42.89142822 -23 43 C-26.55532996 35.7322773 -26.26454919 25.65236471 -24.16015625 17.91015625 C-20.22738908 9.31633169 -13.51855748 4.24059334 -4.98046875 0.62890625 C-3 0 -3 0 0 0 Z " fill="#81C137" transform="translate(652,197)"/>
<path d="M0 0 C0.66 0.66 1.32 1.32 2 2 C2.53625 1.505 3.0725 1.01 3.625 0.5 C6.71852796 -1.45380713 8.39369166 -1.51518691 12 -1 C16.5754717 1.84696017 16.5754717 1.84696017 17.6328125 4.71875 C18.12096147 7.75150529 18.09320147 10.67985274 18.0625 13.75 C18.05347656 14.92046875 18.04445313 16.0909375 18.03515625 17.296875 C18.02355469 18.18890625 18.01195312 19.0809375 18 20 C16.35 20 14.7 20 13 20 C12.93941406 18.92878906 12.87882813 17.85757813 12.81640625 16.75390625 C12.73201463 15.35675609 12.64736594 13.95962143 12.5625 12.5625 C12.52318359 11.85544922 12.48386719 11.14839844 12.44335938 10.41992188 C12.52375562 6.91309581 12.52375562 6.91309581 11 4 C8.5 3.83333333 8.5 3.83333333 6 4 C4.05909174 5.94090826 4.60080565 9.47293902 4.4375 12.0625 C4.35371094 13.35285156 4.26992188 14.64320313 4.18359375 15.97265625 C4.09271484 17.47119141 4.09271484 17.47119141 4 19 C2.35 19.33 0.7 19.66 -1 20 C-1.06058594 18.92878906 -1.12117187 17.85757813 -1.18359375 16.75390625 C-1.26798537 15.35675609 -1.35263406 13.95962143 -1.4375 12.5625 C-1.47681641 11.85544922 -1.51613281 11.14839844 -1.55664062 10.41992188 C-1.47624438 6.91309581 -1.47624438 6.91309581 -3 4 C-4.66617115 3.95936168 -6.33388095 3.957279 -8 4 C-10.03219488 7.40351338 -10.36891039 10.3232927 -10.625 14.25 C-10.69976563 15.32765625 -10.77453125 16.4053125 -10.8515625 17.515625 C-10.90054688 18.33546875 -10.94953125 19.1553125 -11 20 C-12.32 20 -13.64 20 -15 20 C-15 13.4 -15 6.8 -15 0 C-13.02 0 -11.04 0 -9 0 C-5.88135455 -1.55932272 -3.33704665 -0.65549131 0 0 Z " fill="#81C137" transform="translate(642,890)"/>
<path d="M0 0 C1.17949219 0.10183594 2.35898438 0.20367188 3.57421875 0.30859375 C4.47785156 0.39238281 5.38148438 0.47617187 6.3125 0.5625 C6.42864929 4.6455942 6.49973457 8.72826377 6.5625 12.8125 C6.61277344 14.55080078 6.61277344 14.55080078 6.6640625 16.32421875 C6.67695313 17.43925781 6.68984375 18.55429687 6.703125 19.703125 C6.72407227 20.72954102 6.74501953 21.75595703 6.76660156 22.81347656 C6.19359634 26.2823146 5.05224399 27.42992226 2.3125 29.5625 C-1.40182612 30.30536522 -4.95012943 30.13529883 -8.6875 29.5625 C-11.375 27.75 -11.375 27.75 -12.6875 25.5625 C-12.6875 24.5725 -12.6875 23.5825 -12.6875 22.5625 C-9.31287285 23.10973683 -7.60515 23.6174 -4.6875 25.5625 C-2.04117713 25.2503236 -2.04117713 25.2503236 0.3125 24.5625 C0.6425 22.9125 0.9725 21.2625 1.3125 19.5625 C0.6525 19.8925 -0.0075 20.2225 -0.6875 20.5625 C-7.92837591 21.14644161 -7.92837591 21.14644161 -11.125 18.6875 C-14.22335839 14.47373259 -14.34166567 10.68090433 -13.6875 5.5625 C-10.01584451 -0.51472288 -6.70062375 -0.59708528 0 0 Z M-8 5.125 C-10.04863011 7.56572397 -10.04863011 7.56572397 -9.5625 11.1875 C-8.98009286 14.60792055 -8.98009286 14.60792055 -6.6875 16.5625 C-3.58402746 16.89265665 -1.52968824 17.06781294 1.1875 15.4375 C2.86718045 12.63803259 2.76992277 10.76445936 2.3125 7.5625 C0.68669918 5.10297777 0.68669918 5.10297777 -1.6875 3.5625 C-5.60025555 3.18926173 -5.60025555 3.18926173 -8 5.125 Z " fill="#81C137" transform="translate(241.6875,889.4375)"/>
<path d="M0 0 C1.97265625 0.265625 1.97265625 0.265625 4.97265625 2.265625 C4.97265625 3.585625 4.97265625 4.905625 4.97265625 6.265625 C3.65265625 6.265625 2.33265625 6.265625 0.97265625 6.265625 C0.97265625 5.605625 0.97265625 4.945625 0.97265625 4.265625 C-0.67734375 4.265625 -2.32734375 4.265625 -4.02734375 4.265625 C-2.01183759 8.82703368 0.20383574 11.97998661 3.97265625 15.265625 C4.63265625 15.265625 5.29265625 15.265625 5.97265625 15.265625 C6.63265625 14.275625 7.29265625 13.285625 7.97265625 12.265625 C9.29265625 12.265625 10.61265625 12.265625 11.97265625 12.265625 C11.781875 12.85730469 11.59109375 13.44898438 11.39453125 14.05859375 C10.70980523 16.49892544 10.16725028 18.73590256 9.97265625 21.265625 C11.65566187 24.33364951 11.65566187 24.33364951 13.97265625 26.265625 C8.34765625 26.515625 8.34765625 26.515625 4.97265625 24.265625 C3.98265625 24.925625 2.99265625 25.585625 1.97265625 26.265625 C-2.57130051 26.91801278 -6.65711488 27.08123742 -10.65234375 24.703125 C-12.55375866 21.33243493 -12.50381983 19.07743365 -12.02734375 15.265625 C-10.65234375 12.828125 -10.65234375 12.828125 -9.02734375 11.265625 C-8.36734375 11.265625 -7.70734375 11.265625 -7.02734375 11.265625 C-7.35734375 10.605625 -7.68734375 9.945625 -8.02734375 9.265625 C-8.21484375 5.765625 -8.21484375 5.765625 -8.02734375 2.265625 C-5.42029477 -0.34142398 -3.55396134 0.02657167 0 0 Z M-6.02734375 14.265625 C-8.27321346 16.95436441 -8.27321346 16.95436441 -7.83984375 19.328125 C-7.08630165 21.62556038 -7.08630165 21.62556038 -4.02734375 23.265625 C-1.38102088 22.9534486 -1.38102088 22.9534486 0.97265625 22.265625 C1.39087594 18.30325576 1.39087594 18.30325576 -0.83984375 16.015625 C-2.95088368 13.95327748 -2.95088368 13.95327748 -6.02734375 14.265625 Z " fill="#81C137" transform="translate(742.02734375,883.734375)"/>
<path d="M0 0 C2.3181362 1.89111111 3.66914015 3.33828031 5 6 C5.37712577 10.99691647 5.09290612 13.99067725 2 18 C-2.05358424 20.70238949 -4.18310104 20.22937614 -9 20 C-9.66 19.67 -10.32 19.34 -11 19 C-11.33 22.3 -11.66 25.6 -12 29 C-13.32 29 -14.64 29 -16 29 C-16 19.43 -16 9.86 -16 0 C-13.525 0.495 -13.525 0.495 -11 1 C-10.38125 0.67 -9.7625 0.34 -9.125 0 C-5.82181734 -1.5544389 -3.47004805 -0.86751201 0 0 Z M-10.375 5.125 C-12.27224595 7.91227098 -12.27224595 7.91227098 -11.9375 11.1875 C-11.22109171 14.29600708 -11.22109171 14.29600708 -8 16 C-4.36060068 15.68269476 -4.36060068 15.68269476 -1 15 C0.30059064 12.26814404 0.30059064 12.26814404 1 9 C-0.11516891 6.61035234 -1.13950458 4.86049542 -3 3 C-6.57812125 2.41976412 -7.62765006 2.66684479 -10.375 5.125 Z " fill="#81C137" transform="translate(619,890)"/>
<path d="M0 0 C1.32 0 2.64 0 4 0 C4 8.91 4 17.82 4 27 C2.68 27 1.36 27 0 27 C-0.33 26.34 -0.66 25.68 -1 25 C-1.66 25.66 -2.32 26.32 -3 27 C-7.67601163 27.45993557 -9.91318937 27.67058528 -13.9375 25.1875 C-16.63032062 22.33147813 -16.96164342 20.51781389 -17.25 16.625 C-16.98179349 12.73600564 -16.4129723 11.01621538 -14 8 C-11.94281696 6.32377678 -10.64032816 5.97623782 -8 6.07421875 C-2.30548597 6.69451403 -2.30548597 6.69451403 -1 8 C-0.67 5.36 -0.34 2.72 0 0 Z M-10.75 11.1875 C-12.38379608 13.55650431 -12.86266868 15.1160423 -13 18 C-12.09762034 20.89299553 -12.09762034 20.89299553 -10 23 C-6.81497476 23.53083754 -4.95514811 23.54125059 -2.125 21.9375 C-0.35726726 18.8930714 -0.63176084 16.4368988 -1 13 C-2.04374022 10.95548981 -2.04374022 10.95548981 -4 10 C-6.86449123 9.57032632 -8.3314673 9.54635281 -10.75 11.1875 Z " fill="#81C137" transform="translate(499,883)"/>
<path d="M0 0 C0 6.6 0 13.2 0 20 C-2.33333333 20 -4.66666667 20 -7 20 C-8.918125 20.061875 -8.918125 20.061875 -10.875 20.125 C-14.08764337 20.11335999 -16.36992707 20.02313302 -19 18 C-21.52647143 13.78006039 -21.71079351 9.80427905 -21 5 C-15.97185722 -3.32244322 -8.62700497 -0.71232151 0 0 Z M-15.3125 4.5625 C-17.36113011 7.00322397 -17.36113011 7.00322397 -16.875 10.625 C-16.29259286 14.04542055 -16.29259286 14.04542055 -14 16 C-10.92891945 16.3267107 -8.84949899 16.48138276 -6.125 14.9375 C-4.33764697 11.85928089 -4.56613258 9.47093932 -5 6 C-6.63450124 3.94054984 -6.63450124 3.94054984 -9 3 C-12.91275555 2.62676173 -12.91275555 2.62676173 -15.3125 4.5625 Z " fill="#81C137" transform="translate(273,890)"/>
<path d="M0 0 C2.5625 2.1875 2.5625 2.1875 4 5 C4 6.98 4 8.96 4 11 C-0.95 11 -5.9 11 -11 11 C-10.34 12.32 -9.68 13.64 -9 15 C-5.71023192 16.09658936 -4.28696233 15.79953138 -1 15 C-1 14.34 -1 13.68 -1 13 C0.65 13 2.3 13 4 13 C2.75023244 16.65316671 2.32901247 17.78065836 -1 20 C-5.56051995 20.73446576 -9.01911074 20.59262059 -13 18.1875 C-15.61841256 15.32361126 -15.96473004 13.47614448 -16.25 9.625 C-15.98179349 5.73600564 -15.4129723 4.01621538 -13 1 C-8.68677293 -1.69115877 -4.78139541 -1.3510732 0 0 Z M-11 5 C-11 5.99 -11 6.98 -11 8 C-7.37 8 -3.74 8 0 8 C-1.1375562 5.40858714 -1.1375562 5.40858714 -3 3 C-6.73290719 2.34674124 -7.78697711 2.85798474 -11 5 Z " fill="#81C137" transform="translate(522,890)"/>
<path d="M0 0 C2.5 2.1875 2.5 2.1875 4 5 C4 6.98 4 8.96 4 11 C-0.95 11 -5.9 11 -11 11 C-10.34 12.32 -9.68 13.64 -9 15 C-5.71023192 16.09658936 -4.28696233 15.79953138 -1 15 C-1 14.34 -1 13.68 -1 13 C0.65 13 2.3 13 4 13 C2.75023244 16.65316671 2.32901247 17.78065836 -1 20 C-4.06526351 20.54531842 -6.93408329 20.54325893 -10 20 C-12.75569447 17.81840855 -14.43588747 16.12822506 -16 13 C-16.04227317 8.62049912 -15.78687799 5.04917065 -13.125 1.5 C-8.91205167 -1.47384588 -4.82718876 -1.40833475 0 0 Z M-11 5 C-11 5.99 -11 6.98 -11 8 C-7.37 8 -3.74 8 0 8 C-1.57836298 4.31622777 -1.57836298 4.31622777 -3 3 C-6.72224599 2.70613847 -7.77786243 2.85190829 -11 5 Z " fill="#81C137" transform="translate(564,890)"/>
<path d="M0 0 C0 6.6 0 13.2 0 20 C-1.65 19.67 -3.3 19.34 -5 19 C-5.66 19.33 -6.32 19.66 -7 20 C-14.24087591 20.58394161 -14.24087591 20.58394161 -17.4375 18.125 C-20.53585839 13.91123259 -20.65416567 10.11840433 -20 5 C-15.10471349 -3.10254319 -8.41468307 -0.74982324 0 0 Z M-14.3125 4.5625 C-16.36113011 7.00322397 -16.36113011 7.00322397 -15.875 10.625 C-15.29259286 14.04542055 -15.29259286 14.04542055 -13 16 C-9.89652746 16.33015665 -7.84218824 16.50531294 -5.125 14.875 C-3.44531955 12.07553259 -3.54257723 10.20195936 -4 7 C-5.62580082 4.54047777 -5.62580082 4.54047777 -8 3 C-11.91275555 2.62676173 -11.91275555 2.62676173 -14.3125 4.5625 Z " fill="#81C137" transform="translate(344,890)"/>
<path d="M0 0 C2.5 2.1875 2.5 2.1875 4 5 C4 6.98 4 8.96 4 11 C-0.95 11 -5.9 11 -11 11 C-10.34 12.32 -9.68 13.64 -9 15 C-6.69 15 -4.38 15 -2 15 C-1.67 14.34 -1.34 13.68 -1 13 C0.65 13 2.3 13 4 13 C2.75023244 16.65316671 2.32901247 17.78065836 -1 20 C-5.70547252 20.8371159 -9.02671316 20.6691347 -13 17.9375 C-15.4223692 14.37964524 -16 12.30255233 -16 8 C-14.86885371 4.16667091 -14.15414144 1.79141128 -10.8125 -0.5 C-6.99851927 -1.17804102 -3.71158735 -1.19328696 0 0 Z M-9.9375 4.3125 C-11.17760442 5.94972228 -11.17760442 5.94972228 -11 8 C-7.37 8 -3.74 8 0 8 C-0.33 6.68 -0.66 5.36 -1 4 C-5.67286296 2.77550983 -5.67286296 2.77550983 -9.9375 4.3125 Z " fill="#81C137" transform="translate(884,890)"/>
<path d="M0 0 C2.64372777 2.12966959 3.37682528 3.55793967 4.25 6.8125 C4.25 8.1325 4.25 9.4525 4.25 10.8125 C-1.03 10.8125 -6.31 10.8125 -11.75 10.8125 C-10.1 12.4625 -8.45 14.1125 -6.75 15.8125 C-6.028125 15.503125 -5.30625 15.19375 -4.5625 14.875 C-1.94692691 13.88689461 0.50118982 13.2837246 3.25 12.8125 C2.89978759 15.35153996 2.40988127 16.63343298 0.6875 18.5625 C-2.76829953 20.33470489 -5.99078214 20.5061652 -9.75 19.8125 C-12.5600346 18.01886089 -14.25940468 16.79369065 -15.75 13.8125 C-16.30112923 9.21373316 -16.36753151 5.83462113 -13.9375 1.8125 C-9.79693184 -1.97316232 -5.05014629 -2.18074499 0 0 Z M-11.75 6.8125 C-11.75 7.1425 -11.75 7.4725 -11.75 7.8125 C-8.12 7.8125 -4.49 7.8125 -0.75 7.8125 C-1.32125354 4.06974788 -1.32125354 4.06974788 -2.75 2.8125 C-7.27002563 2.20168573 -8.90822169 3.33921539 -11.75 6.8125 Z " fill="#81C137" transform="translate(678.75,890.1875)"/>
<path d="M0 0 C2.30083711 3.68133938 2.77037168 7.18858744 2.5625 11.5 C1.00068681 15.170261 -0.09660596 16.2727373 -3.4375 18.5 C-7.99801995 19.23446576 -11.45661074 19.09262059 -15.4375 16.6875 C-18.05591256 13.82361126 -18.40223004 11.97614448 -18.6875 8.125 C-18.41799408 4.21716414 -17.91892225 2.49481995 -15.4375 -0.5 C-10.52627448 -3.58705604 -4.81204893 -2.96126088 0 0 Z M-12.1875 2.6875 C-13.82129608 5.05650431 -14.30016868 6.6160423 -14.4375 9.5 C-13.60770292 12.41078244 -13.60770292 12.41078244 -11.4375 14.5 C-7.89519191 15.08342353 -7.89519191 15.08342353 -4.4375 14.5 C-2.0092978 12.50442887 -2.0092978 12.50442887 -2.125 8.5625 C-2.20030783 5.96908648 -2.28502137 4.75680612 -3.625 2.5 C-6.70725434 0.79944588 -9.24214553 0.68886661 -12.1875 2.6875 Z " fill="#81C137" transform="translate(597.4375,891.5)"/>
<path d="M0 0 C2.74039337 1.24563335 4.4643868 2.31135445 6.3125 4.6875 C7.34258338 8.15232593 7.5914722 11.45116679 7 15 C5.20636089 17.8100346 3.98119065 19.50940468 1 21 C-3.74616694 21.65271451 -6.98277746 21.69934049 -11 18.9375 C-13.40813237 15.40055558 -14 13.27436594 -14 9 C-12.75344487 5.39884074 -11.64648516 3.52417716 -8.6875 1.125 C-5.47713606 -0.21887328 -3.45252804 -0.431566 0 0 Z M-7.8125 5.0625 C-9.65150018 8.06297398 -9.30671285 10.56481613 -9 14 C-8.01 15.485 -8.01 15.485 -7 17 C-3.54230809 17.58342353 -3.54230809 17.58342353 0 17 C2.16666667 15.5 2.16666667 15.5 3 13 C2.87046154 9.82630784 2.51878767 7.77818151 0.75 5.125 C-2.23430677 3.20651708 -4.77303345 3.28074375 -7.8125 5.0625 Z " fill="#81C137" transform="translate(450,889)"/>
<path d="M0 0 C2.79659888 2.18271132 3.76939596 3.66006916 4.37109375 7.15625 C4.5972908 11.26892363 4.34475039 13.44839938 2.125 17 C-1.22007209 20.14830314 -3.45587185 20.22255983 -8.03125 20.15625 C-10.46506946 19.96308973 -12.02527598 19.44306756 -14 18 C-16.21666876 14.67499687 -16.77137913 12.96276172 -17 9 C-15.83607694 5.18491887 -14.78941332 2.74297724 -11.875 0 C-7.70931372 -1.44893436 -4.21444044 -1.25804192 0 0 Z M-10.25 4.625 C-12.49369241 7.67001113 -12.5518663 9.29461199 -12 13 C-11 15 -11 15 -9 16 C-6 16.58333333 -6 16.58333333 -3 16 C-0.88329643 14.53958234 -0.88329643 14.53958234 0 12 C0.00668717 8.37942732 0.00668717 8.37942732 -1 5 C-4.61182209 2.59211861 -6.60307329 1.99110849 -10.25 4.625 Z " fill="#81C137" transform="translate(386,890)"/>
<path d="M0 0 C2.79659888 2.18271132 3.76939596 3.66006916 4.37109375 7.15625 C4.5972908 11.26892363 4.34475039 13.44839938 2.125 17 C-1.22007209 20.14830314 -3.45587185 20.22255983 -8.03125 20.15625 C-10.46506946 19.96308973 -12.02527598 19.44306756 -14 18 C-16.82644678 13.76032983 -16.65911947 9.97913141 -16 5 C-12.07617917 -1.62990416 -6.95718936 -1.7832507 0 0 Z M-10.25 4.625 C-12.49369241 7.67001113 -12.5518663 9.29461199 -12 13 C-11 15 -11 15 -9 16 C-6 16.58333333 -6 16.58333333 -3 16 C-0.88329643 14.53958234 -0.88329643 14.53958234 0 12 C0.00668717 8.37942732 0.00668717 8.37942732 -1 5 C-4.61182209 2.59211861 -6.60307329 1.99110849 -10.25 4.625 Z " fill="#81C137" transform="translate(208,890)"/>
<path d="M0 0 C2.98118965 4.12780106 2.73748738 8.00126237 2.6875 13 C2.67847656 14.17046875 2.66945313 15.3409375 2.66015625 16.546875 C2.64855469 17.43890625 2.63695312 18.3309375 2.625 19.25 C0.975 19.25 -0.675 19.25 -2.375 19.25 C-2.705 14.3 -3.035 9.35 -3.375 4.25 C-6.345 3.755 -6.345 3.755 -9.375 3.25 C-11.72270643 6.77155964 -11.75169614 8.75771843 -12 12.9375 C-12.07476563 14.11699219 -12.14953125 15.29648437 -12.2265625 16.51171875 C-12.27554688 17.41535156 -12.32453125 18.31898438 -12.375 19.25 C-13.695 19.25 -15.015 19.25 -16.375 19.25 C-16.375 12.65 -16.375 6.05 -16.375 -0.75 C-3.51175214 -2.58760684 -3.51175214 -2.58760684 0 0 Z " fill="#81C137" transform="translate(702.375,890.75)"/>
<path d="M0 0 C2.94755278 4.19459434 2.74241489 8.62774511 2.6875 13.625 C2.67847656 14.69363281 2.66945313 15.76226563 2.66015625 16.86328125 C2.64855469 17.67152344 2.63695312 18.47976563 2.625 19.3125 C0.975 19.3125 -0.675 19.3125 -2.375 19.3125 C-2.705 14.3625 -3.035 9.4125 -3.375 4.3125 C-6.345 3.8175 -6.345 3.8175 -9.375 3.3125 C-11.72270643 6.83405964 -11.75169614 8.82021843 -12 13 C-12.07476562 14.17949219 -12.14953125 15.35898437 -12.2265625 16.57421875 C-12.27554687 17.47785156 -12.32453125 18.38148438 -12.375 19.3125 C-13.695 19.3125 -15.015 19.3125 -16.375 19.3125 C-16.375 12.7125 -16.375 6.1125 -16.375 -0.6875 C-3.54680617 -2.52009912 -3.54680617 -2.52009912 0 0 Z " fill="#81C137" transform="translate(293.375,890.6875)"/>
<path d="M0 0 C1.32 0 2.64 0 4 0 C4.06058594 0.83144531 4.12117187 1.66289063 4.18359375 2.51953125 C4.26738281 3.60621094 4.35117187 4.69289063 4.4375 5.8125 C4.55931641 7.43091797 4.55931641 7.43091797 4.68359375 9.08203125 C4.90212461 12.05989905 4.90212461 12.05989905 6 15 C8.85930528 16.29417988 8.85930528 16.29417988 11.125 15.25 C13.31976074 14.06395215 13.31976074 14.06395215 14 11 C14.22179785 9.10787263 14.40614015 7.21115528 14.5625 5.3125 C14.64628906 4.31863281 14.73007812 3.32476563 14.81640625 2.30078125 C14.87699219 1.54152344 14.93757812 0.78226563 15 0 C16.32 0 17.64 0 19 0 C19 6.6 19 13.2 19 20 C17.35 19.67 15.7 19.34 14 19 C13.67 19.33 13.34 19.66 13 20 C5.86847599 20.46764092 5.86847599 20.46764092 2.5625 18.6875 C-0.6726928 15.19349177 -0.10388662 11.32364124 -0.0625 6.8125 C-0.05347656 5.54019531 -0.04445313 4.26789062 -0.03515625 2.95703125 C-0.02355469 1.98121094 -0.01195312 1.00539063 0 0 Z " fill="#81C137" transform="translate(833,890)"/>
<path d="M0 0 C2.63897228 1.98794828 4.69722385 3.55831405 5.40136719 6.91113281 C5.49150921 9.0654259 5.43752386 11.16016615 5.3125 13.3125 C5.28994141 14.05306641 5.26738281 14.79363281 5.24414062 15.55664062 C5.1855815 17.37197357 5.09590886 19.18625681 5 21 C3.68 21 2.36 21 1 21 C0.92652344 19.64455078 0.92652344 19.64455078 0.8515625 18.26171875 C0.77679688 17.08222656 0.70203125 15.90273438 0.625 14.6875 C0.55539062 13.51574219 0.48578125 12.34398437 0.4140625 11.13671875 C0.21386253 7.84300113 0.21386253 7.84300113 -2 5 C-3.98 5 -5.96 5 -8 5 C-8.33 10.28 -8.66 15.56 -9 21 C-10.32 21 -11.64 21 -13 21 C-13 14.4 -13 7.8 -13 1 C-3.13636364 -0.40909091 -3.13636364 -0.40909091 0 0 Z " fill="#81C137" transform="translate(407,889)"/>
<path d="M0 0 C1.32 0 2.64 0 4 0 C4.02578125 0.98742187 4.0515625 1.97484375 4.078125 2.9921875 C4.13484375 4.27351562 4.1915625 5.55484375 4.25 6.875 C4.29640625 8.15117188 4.3428125 9.42734375 4.390625 10.7421875 C4.64431284 14.04425908 4.64431284 14.04425908 6.859375 15.5078125 C9.16634991 16.23386525 9.16634991 16.23386525 12 15 C13.41634833 12.16730334 13.3463005 9.52533562 13.5625 6.375 C13.64628906 5.18648437 13.73007812 3.99796875 13.81640625 2.7734375 C13.87699219 1.85820313 13.93757812 0.94296875 14 0 C15.32 0 16.64 0 18 0 C18 6.6 18 13.2 18 20 C16.35 19.67 14.7 19.34 13 19 C12.67 19.33 12.34 19.66 12 20 C4.87253414 20.58421851 4.87253414 20.58421851 1.75390625 18.49609375 C-0.69765749 15.00711997 -0.43799796 11.84257106 -0.25 7.75 C-0.23195313 7.00492188 -0.21390625 6.25984375 -0.1953125 5.4921875 C-0.14835649 3.66090299 -0.07661652 1.83028351 0 0 Z " fill="#81C137" transform="translate(789,890)"/>
<path d="M0 0 C0.86625 0.7425 1.7325 1.485 2.625 2.25 C2.625 3.57 2.625 4.89 2.625 6.25 C1.305 6.25 -0.015 6.25 -1.375 6.25 C-1.82875 5.734375 -2.2825 5.21875 -2.75 4.6875 C-3.28625 4.213125 -3.8225 3.73875 -4.375 3.25 C-7.52421909 3.48283149 -7.52421909 3.48283149 -10.375 4.25 C-11.22887105 7.55567489 -11.22887105 7.55567489 -11.375 11.25 C-9.582809 13.71172153 -9.582809 13.71172153 -7.375 15.25 C-6.653125 14.940625 -5.93125 14.63125 -5.1875 14.3125 C-2.57192691 13.32439461 -0.12381018 12.7212246 2.625 12.25 C2.27478759 14.78903996 1.78488127 16.07093298 0.0625 18 C-3.39619619 19.77369035 -6.61302238 19.9367102 -10.375 19.25 C-13.81812714 17.1255173 -15.09117547 16.10147359 -16.375 12.25 C-16.7436858 7.27274174 -16.53956308 4.20570385 -13.375 0.25 C-8.9375247 -2.96334418 -4.68895629 -2.43131067 0 0 Z " fill="#81C137" transform="translate(782.375,890.75)"/>
<path d="M0 0 C4.95 0 9.9 0 15 0 C13.99503148 4.01987409 12.68441649 6.31834573 10.4375 9.75 C9.79683594 10.73484375 9.15617187 11.7196875 8.49609375 12.734375 C8.00238281 13.48203125 7.50867188 14.2296875 7 15 C9.64 15.33 12.28 15.66 15 16 C15 17.32 15 18.64 15 20 C10.05 20 5.1 20 0 20 C0.95159442 15.24202791 1.95750318 13.11867702 4.5625 9.1875 C5.20316406 8.21167969 5.84382813 7.23585938 6.50390625 6.23046875 C7.24447266 5.12638672 7.24447266 5.12638672 8 4 C5.36 3.67 2.72 3.34 0 3 C0 2.01 0 1.02 0 0 Z " fill="#81C137" transform="translate(307,890)"/>
<path d="M0 0 C1.65 0 3.3 0 5 0 C6.65 4.29 8.3 8.58 10 13 C11.65 8.71 13.3 4.42 15 0 C16.65 0 18.3 0 20 0 C18.07443364 6.85618326 15.7527517 13.43252132 13 20 C11.35 20 9.7 20 8 20 C4.52623092 13.54871457 2.1886359 6.98500818 0 0 Z " fill="#81C137" transform="translate(527,890)"/>
<path d="M0 0 C1.4540625 0.0309375 1.4540625 0.0309375 2.9375 0.0625 C2.9375 1.0525 2.9375 2.0425 2.9375 3.0625 C1.6175 3.3925 0.2975 3.7225 -1.0625 4.0625 C-1.0625 5.3825 -1.0625 6.7025 -1.0625 8.0625 C0.2575 8.0625 1.5775 8.0625 2.9375 8.0625 C2.9375 9.0525 2.9375 10.0425 2.9375 11.0625 C1.6175 11.0625 0.2975 11.0625 -1.0625 11.0625 C-1.0625 16.6725 -1.0625 22.2825 -1.0625 28.0625 C-2.7125 28.0625 -4.3625 28.0625 -6.0625 28.0625 C-6.0625 22.4525 -6.0625 16.8425 -6.0625 11.0625 C-6.7225 11.0625 -7.3825 11.0625 -8.0625 11.0625 C-8.0625 10.0725 -8.0625 9.0825 -8.0625 8.0625 C-7.4025 8.0625 -6.7425 8.0625 -6.0625 8.0625 C-5.753125 6.928125 -5.44375 5.79375 -5.125 4.625 C-3.76855187 0.07690922 -3.76855187 0.07690922 0 0 Z " fill="#81C137" transform="translate(432.0625,881.9375)"/>
<path d="M0 0 C1.32 0 2.64 0 4 0 C4 1.65 4 3.3 4 5 C5.98 5 7.96 5 10 5 C10 5.99 10 6.98 10 8 C8.02 8 6.04 8 4 8 C4.33 11.96 4.66 15.92 5 20 C7.475 20.99 7.475 20.99 10 22 C9.67 22.99 9.34 23.98 9 25 C3.57446809 25.36170213 3.57446809 25.36170213 1.3125 23.9375 C-0.70439276 20.96018212 -0.28491047 18.35174705 -0.1875 14.8125 C-0.16042969 13.54019531 -0.13335938 12.26789062 -0.10546875 10.95703125 C-0.07066406 9.98121094 -0.03585937 9.00539063 0 8 C-0.66 8 -1.32 8 -2 8 C-2 7.01 -2 6.02 -2 5 C-1.34 5 -0.68 5 0 5 C0 3.35 0 1.7 0 0 Z " fill="#81C137" transform="translate(821,885)"/>
<path d="M0 0 C1.32 0 2.64 0 4 0 C4 1.65 4 3.3 4 5 C5.65 5 7.3 5 9 5 C9 5.99 9 6.98 9 8 C7.35 8 5.7 8 4 8 C4 12.29 4 16.58 4 21 C5.65 21 7.3 21 9 21 C9 22.32 9 23.64 9 25 C5.625 25.125 5.625 25.125 2 25 C0 23 0 23 -0.1953125 19.5234375 C-0.18201493 18.14049032 -0.15816232 16.75761346 -0.125 15.375 C-0.11597656 14.66859375 -0.10695313 13.9621875 -0.09765625 13.234375 C-0.07407603 11.48943902 -0.03820461 9.74467705 0 8 C-0.99 8 -1.98 8 -3 8 C-3 7.01 -3 6.02 -3 5 C-2.01 5 -1.02 5 0 5 C0 3.35 0 1.7 0 0 Z " fill="#81C137" transform="translate(710,885)"/>
<path d="M0 0 C1.32 0 2.64 0 4 0 C4 1.65 4 3.3 4 5 C5.65 5 7.3 5 9 5 C9 5.99 9 6.98 9 8 C7.35 8 5.7 8 4 8 C4 12.29 4 16.58 4 21 C5.65 21 7.3 21 9 21 C9 22.32 9 23.64 9 25 C5.625 25.125 5.625 25.125 2 25 C0 23 0 23 -0.1953125 19.5234375 C-0.18201493 18.14049032 -0.15816232 16.75761346 -0.125 15.375 C-0.11597656 14.66859375 -0.10695313 13.9621875 -0.09765625 13.234375 C-0.07407603 11.48943902 -0.03820461 9.74467705 0 8 C-0.99 8 -1.98 8 -3 8 C-3 7.01 -3 6.02 -3 5 C-2.01 5 -1.02 5 0 5 C0 3.35 0 1.7 0 0 Z " fill="#81C137" transform="translate(350,885)"/>
<path d="M0 0 C0 1.32 0 2.64 0 4 C-1.65 4.66 -3.3 5.32 -5 6 C-5.33 10.95 -5.66 15.9 -6 21 C-7.65 21 -9.3 21 -11 21 C-11 14.4 -11 7.8 -11 1 C-4 0 -4 0 0 0 Z " fill="#81C137" transform="translate(471,889)"/>
<path d="M0 0 C0 1.32 0 2.64 0 4 C-0.804375 4.268125 -1.60875 4.53625 -2.4375 4.8125 C-3.283125 5.204375 -4.12875 5.59625 -5 6 C-6.0541518 9.16245541 -6.31275672 11.86948218 -6.5625 15.1875 C-6.64628906 16.27417969 -6.73007812 17.36085938 -6.81640625 18.48046875 C-6.87699219 19.31191406 -6.93757812 20.14335938 -7 21 C-8.32 21 -9.64 21 -11 21 C-11 14.4 -11 7.8 -11 1 C-4 0 -4 0 0 0 Z " fill="#81C137" transform="translate(867,889)"/>
<path d="M0 0 C1.32 0 2.64 0 4 0 C4 8.91 4 17.82 4 27 C2.68 27 1.36 27 0 27 C0 18.09 0 9.18 0 0 Z " fill="#81C137" transform="translate(812,883)"/>
<path d="M0 0 C1.32 0 2.64 0 4 0 C4 8.91 4 17.82 4 27 C2.68 27 1.36 27 0 27 C0 18.09 0 9.18 0 0 Z " fill="#81C137" transform="translate(572,883)"/>
<path d="M0 0 C0 1.32 0 2.64 0 4 C-0.80824219 4.42925781 -1.61648437 4.85851562 -2.44921875 5.30078125 C-5.37032667 6.81701004 -5.37032667 6.81701004 -5.70703125 10.35546875 C-5.75923828 12.25232422 -5.75923828 12.25232422 -5.8125 14.1875 C-5.86019531 15.45980469 -5.90789062 16.73210938 -5.95703125 18.04296875 C-5.97121094 19.01878906 -5.98539063 19.99460937 -6 21 C-7.32 21 -8.64 21 -10 21 C-10 14.4 -10 7.8 -10 1 C-3 0 -3 0 0 0 Z " fill="#81C137" transform="translate(226,889)"/>
<path d="M0 0 C0.99 0.33 1.98 0.66 3 1 C3 7.6 3 14.2 3 21 C1.68 21 0.36 21 -1 21 C-1.02888146 17.68751813 -1.04675799 14.37506833 -1.0625 11.0625 C-1.07087891 10.11697266 -1.07925781 9.17144531 -1.08789062 8.19726562 C-1.09111328 7.29814453 -1.09433594 6.39902344 -1.09765625 5.47265625 C-1.10289307 4.64000244 -1.10812988 3.80734863 -1.11352539 2.94946289 C-1 1 -1 1 0 0 Z " fill="#81C137" transform="translate(363,889)"/>
<path d="M0 0 C0.99 0.33 1.98 0.66 3 1 C3 7.6 3 14.2 3 21 C1.68 21 0.36 21 -1 21 C-1.02888146 17.68751813 -1.04675799 14.37506833 -1.0625 11.0625 C-1.07087891 10.11697266 -1.07925781 9.17144531 -1.08789062 8.19726562 C-1.09111328 7.29814453 -1.09433594 6.39902344 -1.09765625 5.47265625 C-1.10289307 4.64000244 -1.10812988 3.80734863 -1.11352539 2.94946289 C-1 1 -1 1 0 0 Z " fill="#81C137" transform="translate(301,889)"/>
<path d="M0 0 C1.32 0 2.64 0 4 0 C4.33 1.32 4.66 2.64 5 4 C3.35 4.33 1.7 4.66 0 5 C-0.5625 3.0625 -0.5625 3.0625 -1 1 C-0.67 0.67 -0.34 0.34 0 0 Z " fill="#81C137" transform="translate(300,882)"/>
<path d="M0 0 C1.65 0.33 3.3 0.66 5 1 C4.67 2.32 4.34 3.64 4 5 C2.68 5 1.36 5 0 5 C-0.33 4.01 -0.66 3.02 -1 2 C-0.67 1.34 -0.34 0.68 0 0 Z " fill="#81C137" transform="translate(362,882)"/>
</svg>
