<svg width="512" height="409" viewBox="0 0 512 409" fill="none" xmlns="http://www.w3.org/2000/svg">
<rect x="0.5" y="0.5" width="511" height="408" stroke="black"/>
<g filter="url(#filter0_dd_26_7)">
<mask id="path-2-inside-1_26_7" fill="white">
<path d="M26.8125 393V382.844L148.688 260.188L26.8125 138.312V128.156H233.844V174.25H223.688C223.167 165.396 221.083 158.755 217.438 154.328C213.792 149.901 206.76 147.687 196.344 147.687H90.875L190.875 247.688L84.625 353.938H191.656C203.115 353.938 211.318 351.464 216.266 346.516C221.214 341.568 223.688 334.927 223.688 326.594H233.844V393H26.8125Z"/>
</mask>
<path d="M26.8125 393V382.844L148.688 260.188L26.8125 138.312V128.156H233.844V174.25H223.688C223.167 165.396 221.083 158.755 217.438 154.328C213.792 149.901 206.76 147.687 196.344 147.687H90.875L190.875 247.688L84.625 353.938H191.656C203.115 353.938 211.318 351.464 216.266 346.516C221.214 341.568 223.688 334.927 223.688 326.594H233.844V393H26.8125Z" fill="#D7B085"/>
<path d="M26.8125 393H25.8125V394H26.8125V393ZM26.8125 382.844L26.1031 382.139L25.8125 382.431V382.844H26.8125ZM148.688 260.188L149.397 260.892L150.099 260.185L149.395 259.48L148.688 260.188ZM26.8125 138.312H25.8125V138.727L26.1054 139.02L26.8125 138.312ZM26.8125 128.156V127.156H25.8125V128.156H26.8125ZM233.844 128.156H234.844V127.156H233.844V128.156ZM233.844 174.25V175.25H234.844V174.25H233.844ZM223.688 174.25L222.689 174.309L222.745 175.25H223.688V174.25ZM217.438 154.328L216.666 154.964L217.438 154.328ZM90.875 147.687V146.687H88.4608L90.1679 148.395L90.875 147.687ZM190.875 247.688L191.582 248.395L192.289 247.688L191.582 246.98L190.875 247.688ZM84.625 353.938L83.9179 353.23L82.2108 354.938H84.625V353.938ZM216.266 346.516L216.973 347.223L216.266 346.516ZM223.688 326.594V325.594H222.688V326.594H223.688ZM233.844 326.594H234.844V325.594H233.844V326.594ZM233.844 393V394H234.844V393H233.844ZM26.8125 393H27.8125V382.844H26.8125H25.8125V393H26.8125ZM26.8125 382.844L27.5218 383.549L149.397 260.892L148.688 260.188L147.978 259.483L26.1031 382.139L26.8125 382.844ZM148.688 260.188L149.395 259.48L27.5196 137.605L26.8125 138.312L26.1054 139.02L147.98 260.895L148.688 260.188ZM26.8125 138.312H27.8125V128.156H26.8125H25.8125V138.312H26.8125ZM26.8125 128.156V129.156H233.844V128.156V127.156H26.8125V128.156ZM233.844 128.156H232.844V174.25H233.844H234.844V128.156H233.844ZM233.844 174.25V173.25H223.688V174.25V175.25H233.844V174.25ZM223.688 174.25L224.686 174.191C224.159 165.234 222.045 158.35 218.209 153.692L217.438 154.328L216.666 154.964C220.121 159.16 222.175 165.558 222.689 174.309L223.688 174.25ZM217.438 154.328L218.209 153.692C214.265 148.903 206.831 146.687 196.344 146.687V147.687V148.687C206.69 148.687 213.318 150.899 216.666 154.964L217.438 154.328ZM196.344 147.687V146.687H90.875V147.687V148.687H196.344V147.687ZM90.875 147.687L90.1679 148.395L190.168 248.395L190.875 247.688L191.582 246.98L91.5821 146.98L90.875 147.687ZM190.875 247.688L190.168 246.98L83.9179 353.23L84.625 353.938L85.3321 354.645L191.582 248.395L190.875 247.688ZM84.625 353.938V354.938H191.656V353.938V352.938H84.625V353.938ZM191.656 353.938V354.938C203.219 354.938 211.748 352.448 216.973 347.223L216.266 346.516L215.559 345.809C210.888 350.48 203.01 352.938 191.656 352.938V353.938ZM216.266 346.516L216.973 347.223C222.143 342.052 224.688 335.138 224.688 326.594H223.688H222.688C222.688 334.716 220.284 341.083 215.559 345.809L216.266 346.516ZM223.688 326.594V327.594H233.844V326.594V325.594H223.688V326.594ZM233.844 326.594H232.844V393H233.844H234.844V326.594H233.844ZM233.844 393V392H26.8125V393V394H233.844V393Z" fill="black" fill-opacity="0.48" mask="url(#path-2-inside-1_26_7)"/>
<path d="M26.8125 393H25.8125V394H26.8125V393ZM26.8125 382.844L26.1031 382.139L25.8125 382.431V382.844H26.8125ZM148.688 260.188L149.397 260.892L150.099 260.185L149.395 259.48L148.688 260.188ZM26.8125 138.312H25.8125V138.727L26.1054 139.02L26.8125 138.312ZM26.8125 128.156V127.156H25.8125V128.156H26.8125ZM233.844 128.156H234.844V127.156H233.844V128.156ZM233.844 174.25V175.25H234.844V174.25H233.844ZM223.688 174.25L222.689 174.309L222.745 175.25H223.688V174.25ZM217.438 154.328L216.666 154.964L217.438 154.328ZM90.875 147.687V146.687H88.4608L90.1679 148.395L90.875 147.687ZM190.875 247.688L191.582 248.395L192.289 247.688L191.582 246.98L190.875 247.688ZM84.625 353.938L83.9179 353.23L82.2108 354.938H84.625V353.938ZM216.266 346.516L216.973 347.223L216.266 346.516ZM223.688 326.594V325.594H222.688V326.594H223.688ZM233.844 326.594H234.844V325.594H233.844V326.594ZM233.844 393V394H234.844V393H233.844ZM26.8125 393H27.8125V382.844H26.8125H25.8125V393H26.8125ZM26.8125 382.844L27.5218 383.549L149.397 260.892L148.688 260.188L147.978 259.483L26.1031 382.139L26.8125 382.844ZM148.688 260.188L149.395 259.48L27.5196 137.605L26.8125 138.312L26.1054 139.02L147.98 260.895L148.688 260.188ZM26.8125 138.312H27.8125V128.156H26.8125H25.8125V138.312H26.8125ZM26.8125 128.156V129.156H233.844V128.156V127.156H26.8125V128.156ZM233.844 128.156H232.844V174.25H233.844H234.844V128.156H233.844ZM233.844 174.25V173.25H223.688V174.25V175.25H233.844V174.25ZM223.688 174.25L224.686 174.191C224.159 165.234 222.045 158.35 218.209 153.692L217.438 154.328L216.666 154.964C220.121 159.16 222.175 165.558 222.689 174.309L223.688 174.25ZM217.438 154.328L218.209 153.692C214.265 148.903 206.831 146.687 196.344 146.687V147.687V148.687C206.69 148.687 213.318 150.899 216.666 154.964L217.438 154.328ZM196.344 147.687V146.687H90.875V147.687V148.687H196.344V147.687ZM90.875 147.687L90.1679 148.395L190.168 248.395L190.875 247.688L191.582 246.98L91.5821 146.98L90.875 147.687ZM190.875 247.688L190.168 246.98L83.9179 353.23L84.625 353.938L85.3321 354.645L191.582 248.395L190.875 247.688ZM84.625 353.938V354.938H191.656V353.938V352.938H84.625V353.938ZM191.656 353.938V354.938C203.219 354.938 211.748 352.448 216.973 347.223L216.266 346.516L215.559 345.809C210.888 350.48 203.01 352.938 191.656 352.938V353.938ZM216.266 346.516L216.973 347.223C222.143 342.052 224.688 335.138 224.688 326.594H223.688H222.688C222.688 334.716 220.284 341.083 215.559 345.809L216.266 346.516ZM223.688 326.594V327.594H233.844V326.594V325.594H223.688V326.594ZM233.844 326.594H232.844V393H233.844H234.844V326.594H233.844ZM233.844 393V392H26.8125V393V394H233.844V393Z" fill="#CF9E21" fill-opacity="0.5" mask="url(#path-2-inside-1_26_7)"/>
</g>
<g filter="url(#filter1_dd_26_7)">
<mask id="path-4-inside-2_26_7" fill="white">
<path d="M318.219 393H247.906V382.844C257.281 382.844 264.052 381.151 268.219 377.766C272.385 374.38 276.031 367.74 279.156 357.844L357.281 128.156H388.531L466.656 357.844C469.26 366.177 472.516 372.427 476.422 376.594C480.328 380.76 487.49 382.844 497.906 382.844V393H408.063V382.844C418.479 382.844 424.99 380.76 427.594 376.594C428.896 374.51 429.547 371.906 429.547 368.781C429.547 365.656 428.896 362.01 427.594 357.844L363.531 161.75L298.687 357.844C296.995 362.792 296.148 366.958 296.148 370.344C296.148 373.339 296.865 375.682 298.297 377.375C301.161 381.021 307.802 382.844 318.219 382.844V393Z"/>
</mask>
<path d="M318.219 393H247.906V382.844C257.281 382.844 264.052 381.151 268.219 377.766C272.385 374.38 276.031 367.74 279.156 357.844L357.281 128.156H388.531L466.656 357.844C469.26 366.177 472.516 372.427 476.422 376.594C480.328 380.76 487.49 382.844 497.906 382.844V393H408.063V382.844C418.479 382.844 424.99 380.76 427.594 376.594C428.896 374.51 429.547 371.906 429.547 368.781C429.547 365.656 428.896 362.01 427.594 357.844L363.531 161.75L298.687 357.844C296.995 362.792 296.148 366.958 296.148 370.344C296.148 373.339 296.865 375.682 298.297 377.375C301.161 381.021 307.802 382.844 318.219 382.844V393Z" fill="white"/>
<path d="M318.219 393V394H319.219V393H318.219ZM247.906 393H246.906V394H247.906V393ZM247.906 382.844V381.844H246.906V382.844H247.906ZM268.219 377.766L267.588 376.99L268.219 377.766ZM279.156 357.844L278.21 357.522L278.206 357.532L278.203 357.543L279.156 357.844ZM357.281 128.156V127.156H356.565L356.335 127.834L357.281 128.156ZM388.531 128.156L389.478 127.834L389.247 127.156H388.531V128.156ZM466.656 357.844L467.611 357.546L467.607 357.534L467.603 357.522L466.656 357.844ZM497.906 382.844H498.906V381.844H497.906V382.844ZM497.906 393V394H498.906V393H497.906ZM408.063 393H407.063V394H408.063V393ZM408.063 382.844V381.844H407.063V382.844H408.063ZM427.594 376.594L428.442 377.124L427.594 376.594ZM427.594 357.844L428.548 357.545L428.544 357.533L427.594 357.844ZM363.531 161.75L364.482 161.439L363.537 158.547L362.582 161.436L363.531 161.75ZM298.687 357.844L299.634 358.168L299.637 358.158L298.687 357.844ZM298.297 377.375L299.083 376.757L299.072 376.743L299.06 376.729L298.297 377.375ZM318.219 382.844H319.219V381.844H318.219V382.844ZM318.219 393V392H247.906V393V394H318.219V393ZM247.906 393H248.906V382.844H247.906H246.906V393H247.906ZM247.906 382.844V383.844C257.357 383.844 264.413 382.146 268.849 378.542L268.219 377.766L267.588 376.99C263.691 380.156 257.206 381.844 247.906 381.844V382.844ZM268.219 377.766L268.849 378.542C273.254 374.963 276.972 368.081 280.11 358.145L279.156 357.844L278.203 357.543C275.09 367.398 271.517 373.798 267.588 376.99L268.219 377.766ZM279.156 357.844L280.103 358.166L358.228 128.478L357.281 128.156L356.335 127.834L278.21 357.522L279.156 357.844ZM357.281 128.156V129.156H388.531V128.156V127.156H357.281V128.156ZM388.531 128.156L387.585 128.478L465.71 358.166L466.656 357.844L467.603 357.522L389.478 127.834L388.531 128.156ZM466.656 357.844L465.702 358.142C468.329 366.55 471.643 372.958 475.692 377.278L476.422 376.594L477.151 375.91C473.388 371.896 470.192 365.804 467.611 357.546L466.656 357.844ZM476.422 376.594L475.692 377.278C479.894 381.76 487.422 383.844 497.906 383.844V382.844V381.844C487.557 381.844 480.762 379.761 477.151 375.91L476.422 376.594ZM497.906 382.844H496.906V393H497.906H498.906V382.844H497.906ZM497.906 393V392H408.063V393V394H497.906V393ZM408.063 393H409.063V382.844H408.063H407.063V393H408.063ZM408.063 382.844V383.844C413.326 383.844 417.672 383.319 421.063 382.234C424.456 381.148 426.973 379.474 428.442 377.124L427.594 376.594L426.746 376.064C425.61 377.88 423.57 379.331 420.453 380.329C417.334 381.327 413.216 381.844 408.063 381.844V382.844ZM427.594 376.594L428.442 377.124C429.867 374.844 430.547 372.043 430.547 368.781H429.547H428.547C428.547 371.769 427.925 374.177 426.746 376.064L427.594 376.594ZM429.547 368.781H430.547C430.547 365.524 429.87 361.774 428.548 357.546L427.594 357.844L426.639 358.142C427.922 362.247 428.547 365.789 428.547 368.781H429.547ZM427.594 357.844L428.544 357.533L364.482 161.439L363.531 161.75L362.581 162.061L426.643 358.154L427.594 357.844ZM363.531 161.75L362.582 161.436L297.738 357.53L298.687 357.844L299.637 358.158L364.481 162.064L363.531 161.75ZM298.687 357.844L297.741 357.52C296.03 362.522 295.148 366.805 295.148 370.344H296.148H297.148C297.148 367.111 297.959 363.062 299.634 358.167L298.687 357.844ZM296.148 370.344H295.148C295.148 373.492 295.902 376.093 297.533 378.021L298.297 377.375L299.06 376.729C297.827 375.272 297.148 373.185 297.148 370.344H296.148ZM298.297 377.375L297.511 377.993C299.125 380.048 301.73 381.499 305.161 382.441C308.6 383.385 312.962 383.844 318.219 383.844V382.844V381.844C313.059 381.844 308.893 381.391 305.69 380.512C302.481 379.631 300.333 378.348 299.083 376.757L298.297 377.375ZM318.219 382.844H317.219V393H318.219H319.219V382.844H318.219Z" fill="black" fill-opacity="0.48" mask="url(#path-4-inside-2_26_7)"/>
<path d="M318.219 393V394H319.219V393H318.219ZM247.906 393H246.906V394H247.906V393ZM247.906 382.844V381.844H246.906V382.844H247.906ZM268.219 377.766L267.588 376.99L268.219 377.766ZM279.156 357.844L278.21 357.522L278.206 357.532L278.203 357.543L279.156 357.844ZM357.281 128.156V127.156H356.565L356.335 127.834L357.281 128.156ZM388.531 128.156L389.478 127.834L389.247 127.156H388.531V128.156ZM466.656 357.844L467.611 357.546L467.607 357.534L467.603 357.522L466.656 357.844ZM497.906 382.844H498.906V381.844H497.906V382.844ZM497.906 393V394H498.906V393H497.906ZM408.063 393H407.063V394H408.063V393ZM408.063 382.844V381.844H407.063V382.844H408.063ZM427.594 376.594L428.442 377.124L427.594 376.594ZM427.594 357.844L428.548 357.545L428.544 357.533L427.594 357.844ZM363.531 161.75L364.482 161.439L363.537 158.547L362.582 161.436L363.531 161.75ZM298.687 357.844L299.634 358.168L299.637 358.158L298.687 357.844ZM298.297 377.375L299.083 376.757L299.072 376.743L299.06 376.729L298.297 377.375ZM318.219 382.844H319.219V381.844H318.219V382.844ZM318.219 393V392H247.906V393V394H318.219V393ZM247.906 393H248.906V382.844H247.906H246.906V393H247.906ZM247.906 382.844V383.844C257.357 383.844 264.413 382.146 268.849 378.542L268.219 377.766L267.588 376.99C263.691 380.156 257.206 381.844 247.906 381.844V382.844ZM268.219 377.766L268.849 378.542C273.254 374.963 276.972 368.081 280.11 358.145L279.156 357.844L278.203 357.543C275.09 367.398 271.517 373.798 267.588 376.99L268.219 377.766ZM279.156 357.844L280.103 358.166L358.228 128.478L357.281 128.156L356.335 127.834L278.21 357.522L279.156 357.844ZM357.281 128.156V129.156H388.531V128.156V127.156H357.281V128.156ZM388.531 128.156L387.585 128.478L465.71 358.166L466.656 357.844L467.603 357.522L389.478 127.834L388.531 128.156ZM466.656 357.844L465.702 358.142C468.329 366.55 471.643 372.958 475.692 377.278L476.422 376.594L477.151 375.91C473.388 371.896 470.192 365.804 467.611 357.546L466.656 357.844ZM476.422 376.594L475.692 377.278C479.894 381.76 487.422 383.844 497.906 383.844V382.844V381.844C487.557 381.844 480.762 379.761 477.151 375.91L476.422 376.594ZM497.906 382.844H496.906V393H497.906H498.906V382.844H497.906ZM497.906 393V392H408.063V393V394H497.906V393ZM408.063 393H409.063V382.844H408.063H407.063V393H408.063ZM408.063 382.844V383.844C413.326 383.844 417.672 383.319 421.063 382.234C424.456 381.148 426.973 379.474 428.442 377.124L427.594 376.594L426.746 376.064C425.61 377.88 423.57 379.331 420.453 380.329C417.334 381.327 413.216 381.844 408.063 381.844V382.844ZM427.594 376.594L428.442 377.124C429.867 374.844 430.547 372.043 430.547 368.781H429.547H428.547C428.547 371.769 427.925 374.177 426.746 376.064L427.594 376.594ZM429.547 368.781H430.547C430.547 365.524 429.87 361.774 428.548 357.546L427.594 357.844L426.639 358.142C427.922 362.247 428.547 365.789 428.547 368.781H429.547ZM427.594 357.844L428.544 357.533L364.482 161.439L363.531 161.75L362.581 162.061L426.643 358.154L427.594 357.844ZM363.531 161.75L362.582 161.436L297.738 357.53L298.687 357.844L299.637 358.158L364.481 162.064L363.531 161.75ZM298.687 357.844L297.741 357.52C296.03 362.522 295.148 366.805 295.148 370.344H296.148H297.148C297.148 367.111 297.959 363.062 299.634 358.167L298.687 357.844ZM296.148 370.344H295.148C295.148 373.492 295.902 376.093 297.533 378.021L298.297 377.375L299.06 376.729C297.827 375.272 297.148 373.185 297.148 370.344H296.148ZM298.297 377.375L297.511 377.993C299.125 380.048 301.73 381.499 305.161 382.441C308.6 383.385 312.962 383.844 318.219 383.844V382.844V381.844C313.059 381.844 308.893 381.391 305.69 380.512C302.481 379.631 300.333 378.348 299.083 376.757L298.297 377.375ZM318.219 382.844H317.219V393H318.219H319.219V382.844H318.219Z" fill="#CF9E21" fill-opacity="0.5" mask="url(#path-4-inside-2_26_7)"/>
</g>
<defs>
<filter id="filter0_dd_26_7" x="22.8125" y="128.156" width="215.031" height="272.844" filterUnits="userSpaceOnUse" color-interpolation-filters="sRGB">
<feFlood flood-opacity="0" result="BackgroundImageFix"/>
<feColorMatrix in="SourceAlpha" type="matrix" values="0 0 0 0 0 0 0 0 0 0 0 0 0 0 0 0 0 0 127 0" result="hardAlpha"/>
<feOffset dy="4"/>
<feGaussianBlur stdDeviation="2"/>
<feComposite in2="hardAlpha" operator="out"/>
<feColorMatrix type="matrix" values="0 0 0 0 0 0 0 0 0 0 0 0 0 0 0 0 0 0 0.25 0"/>
<feBlend mode="normal" in2="BackgroundImageFix" result="effect1_dropShadow_26_7"/>
<feColorMatrix in="SourceAlpha" type="matrix" values="0 0 0 0 0 0 0 0 0 0 0 0 0 0 0 0 0 0 127 0" result="hardAlpha"/>
<feOffset dy="4"/>
<feGaussianBlur stdDeviation="2"/>
<feComposite in2="hardAlpha" operator="out"/>
<feColorMatrix type="matrix" values="0 0 0 0 0 0 0 0 0 0 0 0 0 0 0 0 0 0 0.25 0"/>
<feBlend mode="normal" in2="effect1_dropShadow_26_7" result="effect2_dropShadow_26_7"/>
<feBlend mode="normal" in="SourceGraphic" in2="effect2_dropShadow_26_7" result="shape"/>
</filter>
<filter id="filter1_dd_26_7" x="243.906" y="128.156" width="258" height="272.844" filterUnits="userSpaceOnUse" color-interpolation-filters="sRGB">
<feFlood flood-opacity="0" result="BackgroundImageFix"/>
<feColorMatrix in="SourceAlpha" type="matrix" values="0 0 0 0 0 0 0 0 0 0 0 0 0 0 0 0 0 0 127 0" result="hardAlpha"/>
<feOffset dy="4"/>
<feGaussianBlur stdDeviation="2"/>
<feComposite in2="hardAlpha" operator="out"/>
<feColorMatrix type="matrix" values="0 0 0 0 0 0 0 0 0 0 0 0 0 0 0 0 0 0 0.25 0"/>
<feBlend mode="normal" in2="BackgroundImageFix" result="effect1_dropShadow_26_7"/>
<feColorMatrix in="SourceAlpha" type="matrix" values="0 0 0 0 0 0 0 0 0 0 0 0 0 0 0 0 0 0 127 0" result="hardAlpha"/>
<feOffset dy="4"/>
<feGaussianBlur stdDeviation="2"/>
<feComposite in2="hardAlpha" operator="out"/>
<feColorMatrix type="matrix" values="0 0 0 0 0 0 0 0 0 0 0 0 0 0 0 0 0 0 0.25 0"/>
<feBlend mode="normal" in2="effect1_dropShadow_26_7" result="effect2_dropShadow_26_7"/>
<feBlend mode="normal" in="SourceGraphic" in2="effect2_dropShadow_26_7" result="shape"/>
</filter>
</defs>
</svg>
